<svg xmlns="http://www.w3.org/2000/svg" viewBox="0 0 200 136"><rect width="200" height="136" fill="#dfebe4"/><g transform="translate(0 0)"><text x="5" y="9" font-family="sans-serif" font-size="6" fill="#c75f7d">A</text><polyline fill="none" stroke="#78928a" stroke-width=".25" points="50.00,58.70 51.69,59.09 53.39,59.28 55.11,59.28 56.83,59.11 58.55,58.78 60.25,58.31 61.93,57.71 63.58,57.00 65.19,56.19 66.75,55.30 68.25,54.34 69.70,53.32 71.06,52.26 72.35,51.18 73.55,50.08 74.65,48.99 75.65,47.91 76.53,46.87 77.29,45.88 77.91,44.94 77.01,44.86 75.98,44.81 74.83,44.79 73.58,44.81 72.24,44.86 70.83,44.94 69.35,45.04 67.82,45.17 66.25,45.31 64.65,45.47 63.04,45.64 61.43,45.82 59.83,46.01 58.26,46.21 56.72,46.41 55.23,46.61 53.80,46.80 52.44,46.99 51.17,47.17 50.00,47.34"/><polyline fill="none" stroke="#78928a" stroke-width=".25" points="50.00,47.34 48.31,47.72 46.61,47.91 44.89,47.91 43.17,47.74 41.45,47.42 39.75,46.95 38.07,46.35 36.42,45.64 34.81,44.83 33.25,43.93 31.75,42.97 30.30,41.95 28.94,40.89 27.65,39.81 26.45,38.71 25.35,37.62 24.35,36.55 23.47,35.51 22.71,34.51 22.09,33.58 22.99,33.49 24.02,33.44 25.17,33.43 26.42,33.45 27.76,33.50 29.17,33.58 30.65,33.68 32.18,33.80 33.75,33.94 35.35,34.10 36.96,34.27 38.57,34.46 40.17,34.65 41.74,34.84 43.28,35.04 44.77,35.24 46.20,35.44 47.56,35.62 48.83,35.80 50.00,35.97"/><polyline fill="none" stroke="#78928a" stroke-width=".25" points="50.00,35.97 51.69,36.36 53.39,36.55 55.11,36.55 56.83,36.38 58.55,36.05 60.25,35.58 61.93,34.98 63.58,34.27 65.19,33.46 66.75,32.57 68.25,31.61 69.70,30.59 71.06,29.53 72.35,28.45 73.55,27.35 74.65,26.26 75.65,25.18 76.53,24.14 77.29,23.15 77.91,22.21 77.01,22.13 75.98,22.08 74.83,22.06 73.58,22.08 72.24,22.13 70.83,22.21 69.35,22.31 67.82,22.44 66.25,22.58 64.65,22.74 63.04,22.91 61.43,23.09 59.83,23.28 58.26,23.48 56.72,23.68 55.23,23.88 53.80,24.07 52.44,24.26 51.17,24.44 50.00,24.61"/><polyline fill="none" stroke="#78928a" stroke-width=".25" points="50.00,24.61 48.31,25.00 46.61,25.18 44.89,25.18 43.17,25.01 41.45,24.69 39.75,24.22 38.07,23.62 36.42,22.91 34.81,22.10 33.25,21.21 31.75,20.24 30.30,19.22 28.94,18.17 27.65,17.08 26.45,15.99 25.35,14.89 24.35,13.82 23.47,12.78 22.71,11.78 22.09,10.85 22.99,10.76 24.02,10.71 25.17,10.70 26.42,10.72 27.76,10.77 29.17,10.85 30.65,10.95 32.18,11.07 33.75,11.21 35.35,11.37 36.96,11.55 38.57,11.73 40.17,11.92 41.74,12.12 43.28,12.31 44.77,12.51 46.20,12.71 47.56,12.89 48.83,13.07 50.00,13.24"/><polyline fill="none" stroke="#78928a" stroke-width=".25" points="50.00,53.02 50.87,52.82 51.75,52.61 52.64,52.39 53.53,52.17 54.42,51.94 55.31,51.70 56.21,51.46 57.11,51.21 58.01,50.96 58.91,50.70 59.81,50.44 60.71,50.17 61.61,49.91 62.51,49.64 63.41,49.37 64.31,49.09 65.20,48.82 66.09,48.55 66.97,48.27 67.85,48.00 68.73,47.73 69.60,47.46 70.47,47.19 71.33,46.92 72.18,46.66 73.03,46.40 73.86,46.14 74.69,45.89 75.51,45.65 76.32,45.41 77.12,45.17 77.91,44.94"/><polyline fill="none" stroke="#78928a" stroke-width=".25" points="60.71,50.17 61.62,50.20 62.39,50.56 63.05,51.18 63.63,51.97 64.13,52.85 64.59,53.73 65.02,54.52 65.44,55.15 65.89,55.51 66.36,55.53"/><polyline fill="none" stroke="#78928a" stroke-width=".25" points="60.71,50.17 61.56,49.91 62.17,49.52 62.60,49.02 62.88,48.45 63.08,47.84 63.22,47.24 63.37,46.67 63.55,46.17 63.83,45.77 64.25,45.51"/><polyline fill="none" stroke="#78928a" stroke-width=".25" points="67.85,48.00 68.78,47.91 69.60,47.99 70.33,48.18 70.98,48.45 71.58,48.77 72.13,49.08 72.64,49.35 73.13,49.54 73.62,49.62 74.12,49.53"/><polyline fill="none" stroke="#78928a" stroke-width=".25" points="67.85,48.00 68.74,47.78 69.47,47.50 70.07,47.16 70.56,46.80 70.98,46.42 71.35,46.03 71.70,45.67 72.07,45.34 72.46,45.05 72.92,44.84"/><polyline fill="none" stroke="#78928a" stroke-width=".25" points="50.00,41.65 49.13,41.45 48.25,41.24 47.36,41.03 46.47,40.80 45.58,40.57 44.69,40.34 43.79,40.09 42.89,39.85 41.99,39.59 41.09,39.34 40.19,39.07 39.29,38.81 38.39,38.54 37.49,38.27 36.59,38.00 35.69,37.73 34.80,37.46 33.91,37.18 33.03,36.91 32.15,36.63 31.27,36.36 30.40,36.09 29.53,35.82 28.67,35.56 27.82,35.29 26.97,35.03 26.14,34.78 25.31,34.53 24.49,34.28 23.68,34.04 22.88,33.81 22.09,33.58"/><polyline fill="none" stroke="#78928a" stroke-width=".25" points="39.29,38.81 38.38,38.83 37.61,39.19 36.95,39.82 36.37,40.61 35.87,41.49 35.41,42.37 34.98,43.16 34.56,43.78 34.11,44.14 33.64,44.17"/><polyline fill="none" stroke="#78928a" stroke-width=".25" points="39.29,38.81 38.44,38.55 37.83,38.15 37.40,37.65 37.12,37.08 36.92,36.48 36.78,35.87 36.63,35.30 36.45,34.80 36.17,34.40 35.75,34.14"/><polyline fill="none" stroke="#78928a" stroke-width=".25" points="32.15,36.63 31.22,36.55 30.40,36.62 29.67,36.81 29.02,37.09 28.42,37.40 27.87,37.71 27.36,37.99 26.87,38.18 26.38,38.25 25.88,38.17"/><polyline fill="none" stroke="#78928a" stroke-width=".25" points="32.15,36.63 31.26,36.42 30.53,36.13 29.93,35.80 29.44,35.43 29.02,35.05 28.65,34.67 28.30,34.30 27.93,33.97 27.54,33.69 27.08,33.47"/><polyline fill="none" stroke="#78928a" stroke-width=".25" points="50.00,30.29 50.87,30.09 51.75,29.88 52.64,29.66 53.53,29.44 54.42,29.21 55.31,28.97 56.21,28.73 57.11,28.48 58.01,28.23 58.91,27.97 59.81,27.71 60.71,27.45 61.61,27.18 62.51,26.91 63.41,26.64 64.31,26.36 65.20,26.09 66.09,25.82 66.97,25.54 67.85,25.27 68.73,25.00 69.60,24.73 70.47,24.46 71.33,24.19 72.18,23.93 73.03,23.67 73.86,23.41 74.69,23.16 75.51,22.92 76.32,22.68 77.12,22.44 77.91,22.21"/><polyline fill="none" stroke="#78928a" stroke-width=".25" points="60.71,27.45 61.62,27.47 62.39,27.83 63.05,28.45 63.63,29.24 64.13,30.12 64.59,31.00 65.02,31.79 65.44,32.42 65.89,32.78 66.36,32.80"/><polyline fill="none" stroke="#78928a" stroke-width=".25" points="60.71,27.45 61.56,27.19 62.17,26.79 62.60,26.29 62.88,25.72 63.08,25.11 63.22,24.51 63.37,23.94 63.55,23.44 63.83,23.04 64.25,22.78"/><polyline fill="none" stroke="#78928a" stroke-width=".25" points="67.85,25.27 68.78,25.18 69.60,25.26 70.33,25.45 70.98,25.72 71.58,26.04 72.13,26.35 72.64,26.62 73.13,26.82 73.62,26.89 74.12,26.80"/><polyline fill="none" stroke="#78928a" stroke-width=".25" points="67.85,25.27 68.74,25.05 69.47,24.77 70.07,24.43 70.56,24.07 70.98,23.69 71.35,23.31 71.70,22.94 72.07,22.61 72.46,22.32 72.92,22.11"/><polyline fill="none" stroke="#78928a" stroke-width=".25" points="50.00,18.92 49.13,18.72 48.25,18.52 47.36,18.30 46.47,18.07 45.58,17.84 44.69,17.61 43.79,17.36 42.89,17.12 41.99,16.86 41.09,16.61 40.19,16.35 39.29,16.08 38.39,15.81 37.49,15.54 36.59,15.27 35.69,15.00 34.80,14.73 33.91,14.45 33.03,14.18 32.15,13.90 31.27,13.63 30.40,13.36 29.53,13.09 28.67,12.83 27.82,12.56 26.97,12.30 26.14,12.05 25.31,11.80 24.49,11.55 23.68,11.31 22.88,11.08 22.09,10.85"/><polyline fill="none" stroke="#78928a" stroke-width=".25" points="39.29,16.08 38.38,16.10 37.61,16.47 36.95,17.09 36.37,17.88 35.87,18.76 35.41,19.64 34.98,20.43 34.56,21.05 34.11,21.41 33.64,21.44"/><polyline fill="none" stroke="#78928a" stroke-width=".25" points="39.29,16.08 38.44,15.82 37.83,15.42 37.40,14.92 37.12,14.35 36.92,13.75 36.78,13.14 36.63,12.57 36.45,12.07 36.17,11.67 35.75,11.42"/><polyline fill="none" stroke="#78928a" stroke-width=".25" points="32.15,13.90 31.22,13.82 30.40,13.89 29.67,14.08 29.02,14.36 28.42,14.67 27.87,14.98 27.36,15.26 26.87,15.45 26.38,15.52 25.88,15.44"/><polyline fill="none" stroke="#78928a" stroke-width=".25" points="32.15,13.90 31.26,13.69 30.53,13.40 29.93,13.07 29.44,12.70 29.02,12.32 28.65,11.94 28.30,11.57 27.93,11.24 27.54,10.96 27.08,10.74"/><polyline fill="none" stroke="#78928a" stroke-width=".6" points="50.00,61.46 49.96,60.79 49.93,59.89 49.90,58.97 49.88,58.06 49.86,57.14 49.84,56.21 49.82,55.28 49.81,54.35 49.80,53.42 49.79,52.48 49.79,51.53 49.79,50.59 49.79,49.64 49.79,48.70 49.79,47.75 49.80,46.80 49.80,45.85 49.81,44.90 49.82,43.95 49.83,42.99 49.85,42.04 49.86,41.10 49.88,40.15 49.89,39.20 49.91,38.26 49.93,37.32 49.94,36.38 49.96,35.44 49.98,34.51 50.00,33.58 50.02,32.65 50.04,31.73 50.06,30.82 50.07,29.91 50.09,29.00 50.11,28.10 50.12,27.21 50.14,26.32 50.15,25.44 50.17,24.56 50.18,23.70 50.19,22.84 50.20,21.99 50.20,21.14 50.21,20.31 50.21,19.48 50.21,18.67 50.21,17.86 50.21,17.06 50.21,16.28 50.20,15.50 50.19,14.74 50.18,13.98 50.16,13.24 50.14,12.51 50.12,11.80 50.10,11.09 50.07,10.40 50.04,9.72 50.00,9.06"/><rect x="49.50" y="58.20" width="1" height="1" fill="#c75f7d"/><rect x="53.60" y="58.80" width="1" height="1" fill="#c75f7d"/><rect x="57.75" y="58.35" width="1" height="1" fill="#c75f7d"/><rect x="61.55" y="57.16" width="1" height="1" fill="#c75f7d"/><rect x="64.96" y="55.55" width="1" height="1" fill="#c75f7d"/><rect x="68.01" y="53.66" width="1" height="1" fill="#c75f7d"/><rect x="70.76" y="51.60" width="1" height="1" fill="#c75f7d"/><rect x="73.25" y="49.39" width="1" height="1" fill="#c75f7d"/><rect x="75.45" y="47.07" width="1" height="1" fill="#c75f7d"/><rect x="77.30" y="44.62" width="1" height="1" fill="#c75f7d"/><rect x="73.49" y="44.30" width="1" height="1" fill="#c75f7d"/><rect x="69.27" y="44.51" width="1" height="1" fill="#c75f7d"/><rect x="65.08" y="44.87" width="1" height="1" fill="#c75f7d"/><rect x="60.90" y="45.33" width="1" height="1" fill="#c75f7d"/><rect x="56.74" y="45.84" width="1" height="1" fill="#c75f7d"/><rect x="52.60" y="46.40" width="1" height="1" fill="#c75f7d"/><rect x="48.52" y="47.09" width="1" height="1" fill="#c75f7d"/><rect x="44.34" y="47.41" width="1" height="1" fill="#c75f7d"/><rect x="40.26" y="46.74" width="1" height="1" fill="#c75f7d"/><rect x="36.56" y="45.43" width="1" height="1" fill="#c75f7d"/><rect x="33.25" y="43.73" width="1" height="1" fill="#c75f7d"/><rect x="30.28" y="41.80" width="1" height="1" fill="#c75f7d"/><rect x="27.59" y="39.69" width="1" height="1" fill="#c75f7d"/><rect x="25.18" y="37.46" width="1" height="1" fill="#c75f7d"/><rect x="23.05" y="35.10" width="1" height="1" fill="#c75f7d"/><rect x="22.34" y="33.00" width="1" height="1" fill="#c75f7d"/><rect x="26.56" y="32.97" width="1" height="1" fill="#c75f7d"/><rect x="30.78" y="33.23" width="1" height="1" fill="#c75f7d"/><rect x="34.97" y="33.62" width="1" height="1" fill="#c75f7d"/><rect x="39.14" y="34.08" width="1" height="1" fill="#c75f7d"/><rect x="43.29" y="34.61" width="1" height="1" fill="#c75f7d"/><rect x="47.43" y="35.18" width="1" height="1" fill="#c75f7d"/><rect x="51.50" y="35.91" width="1" height="1" fill="#c75f7d"/><rect x="55.71" y="35.96" width="1" height="1" fill="#c75f7d"/><rect x="59.71" y="35.09" width="1" height="1" fill="#c75f7d"/><rect x="63.30" y="33.67" width="1" height="1" fill="#c75f7d"/><rect x="66.52" y="31.90" width="1" height="1" fill="#c75f7d"/><rect x="69.42" y="29.92" width="1" height="1" fill="#c75f7d"/><rect x="72.04" y="27.78" width="1" height="1" fill="#c75f7d"/><rect x="74.38" y="25.52" width="1" height="1" fill="#c75f7d"/><rect x="76.43" y="23.13" width="1" height="1" fill="#c75f7d"/><rect x="75.61" y="21.58" width="1" height="1" fill="#c75f7d"/><rect x="71.38" y="21.65" width="1" height="1" fill="#c75f7d"/><rect x="67.17" y="21.95" width="1" height="1" fill="#c75f7d"/><rect x="62.99" y="22.36" width="1" height="1" fill="#c75f7d"/><rect x="58.82" y="22.85" width="1" height="1" fill="#c75f7d"/><rect x="54.67" y="23.38" width="1" height="1" fill="#c75f7d"/><rect x="50.53" y="23.96" width="1" height="1" fill="#c75f7d"/><rect x="46.46" y="24.66" width="1" height="1" fill="#c75f7d"/><rect x="42.26" y="24.45" width="1" height="1" fill="#c75f7d"/><rect x="38.36" y="23.41" width="1" height="1" fill="#c75f7d"/><rect x="34.86" y="21.89" width="1" height="1" fill="#c75f7d"/><rect x="31.72" y="20.06" width="1" height="1" fill="#c75f7d"/><rect x="28.90" y="18.03" width="1" height="1" fill="#c75f7d"/><rect x="26.35" y="15.86" width="1" height="1" fill="#c75f7d"/><rect x="24.07" y="13.57" width="1" height="1" fill="#c75f7d"/><rect x="22.12" y="11.15" width="1" height="1" fill="#c75f7d"/><rect x="24.45" y="10.20" width="1" height="1" fill="#c75f7d"/><rect x="28.67" y="10.35" width="1" height="1" fill="#c75f7d"/><rect x="32.88" y="10.68" width="1" height="1" fill="#c75f7d"/><rect x="37.06" y="11.11" width="1" height="1" fill="#c75f7d"/><rect x="41.22" y="11.61" width="1" height="1" fill="#c75f7d"/><rect x="45.36" y="12.16" width="1" height="1" fill="#c75f7d"/><rect x="49.50" y="12.74" width="1" height="1" fill="#c75f7d"/></g><g transform="translate(100 0)"><text x="5" y="9" font-family="sans-serif" font-size="6" fill="#379879">B</text><polyline fill="none" stroke="#78928a" stroke-width=".25" points="50.00,58.52 51.68,58.92 53.44,59.18 55.26,59.29 57.14,59.28 59.05,59.14 60.98,58.89 62.91,58.54 64.84,58.09 66.74,57.56 68.60,56.95 70.41,56.27 72.15,55.53 73.80,54.75 75.36,53.92 76.80,53.06 78.11,52.18 79.28,51.28 80.28,50.38 81.12,49.48 81.76,48.60 80.85,48.52 79.74,48.50 78.48,48.53 77.06,48.61 75.52,48.72 73.87,48.87 72.13,49.06 70.32,49.27 68.46,49.50 66.56,49.75 64.65,50.02 62.75,50.29 60.87,50.56 59.03,50.84 57.26,51.11 55.57,51.37 53.98,51.61 52.51,51.84 51.17,52.04 50.00,52.22"/><polyline fill="none" stroke="#78928a" stroke-width=".25" points="50.00,52.22 48.32,52.62 46.56,52.88 44.74,52.99 42.86,52.98 40.95,52.84 39.02,52.59 37.09,52.24 35.16,51.79 33.26,51.26 31.40,50.65 29.59,49.97 27.85,49.23 26.20,48.45 24.64,47.62 23.20,46.76 21.89,45.88 20.72,44.98 19.72,44.08 18.88,43.18 18.24,42.30 19.15,42.22 20.26,42.20 21.52,42.23 22.94,42.31 24.48,42.42 26.13,42.57 27.87,42.76 29.68,42.97 31.54,43.20 33.44,43.45 35.35,43.71 37.25,43.99 39.13,44.26 40.97,44.54 42.74,44.81 44.43,45.07 46.02,45.31 47.49,45.54 48.83,45.74 50.00,45.92"/><polyline fill="none" stroke="#78928a" stroke-width=".25" points="50.00,45.92 51.68,46.32 53.44,46.58 55.26,46.69 57.14,46.68 59.05,46.54 60.98,46.29 62.91,45.94 64.84,45.49 66.74,44.96 68.60,44.35 70.41,43.67 72.15,42.93 73.80,42.15 75.36,41.32 76.80,40.46 78.11,39.58 79.28,38.68 80.28,37.78 81.12,36.88 81.76,36.00 80.85,35.92 79.74,35.90 78.48,35.93 77.06,36.00 75.52,36.12 73.87,36.27 72.13,36.46 70.32,36.67 68.46,36.90 66.56,37.15 64.65,37.41 62.75,37.69 60.87,37.96 59.03,38.24 57.26,38.51 55.57,38.77 53.98,39.01 52.51,39.24 51.17,39.44 50.00,39.62"/><polyline fill="none" stroke="#78928a" stroke-width=".25" points="50.00,39.62 48.32,40.02 46.56,40.27 44.74,40.39 42.86,40.38 40.95,40.24 39.02,39.99 37.09,39.64 35.16,39.19 33.26,38.66 31.40,38.05 29.59,37.37 27.85,36.63 26.20,35.85 24.64,35.02 23.20,34.16 21.89,33.28 20.72,32.38 19.72,31.48 18.88,30.58 18.24,29.70 19.15,29.62 20.26,29.60 21.52,29.63 22.94,29.70 24.48,29.82 26.13,29.97 27.87,30.16 29.68,30.37 31.54,30.60 33.44,30.85 35.35,31.11 37.25,31.39 39.13,31.66 40.97,31.94 42.74,32.21 44.43,32.47 46.02,32.71 47.49,32.94 48.83,33.14 50.00,33.31"/><polyline fill="none" stroke="#78928a" stroke-width=".25" points="50.00,33.31 51.68,33.72 53.44,33.97 55.26,34.09 57.14,34.08 59.05,33.94 60.98,33.69 62.91,33.34 64.84,32.89 66.74,32.36 68.60,31.75 70.41,31.07 72.15,30.33 73.80,29.55 75.36,28.72 76.80,27.86 78.11,26.98 79.28,26.08 80.28,25.18 81.12,24.28 81.76,23.40 80.85,23.32 79.74,23.30 78.48,23.33 77.06,23.40 75.52,23.52 73.87,23.67 72.13,23.86 70.32,24.07 68.46,24.30 66.56,24.55 64.65,24.81 62.75,25.09 60.87,25.36 59.03,25.64 57.26,25.91 55.57,26.17 53.98,26.41 52.51,26.64 51.17,26.84 50.00,27.01"/><polyline fill="none" stroke="#78928a" stroke-width=".25" points="50.00,27.01 48.32,27.42 46.56,27.67 44.74,27.79 42.86,27.78 40.95,27.64 39.02,27.39 37.09,27.04 35.16,26.59 33.26,26.06 31.40,25.45 29.59,24.77 27.85,24.03 26.20,23.25 24.64,22.42 23.20,21.56 21.89,20.68 20.72,19.78 19.72,18.88 18.88,17.98 18.24,17.10 19.15,17.02 20.26,17.00 21.52,17.03 22.94,17.10 24.48,17.22 26.13,17.37 27.87,17.56 29.68,17.77 31.54,18.00 33.44,18.25 35.35,18.51 37.25,18.79 39.13,19.06 40.97,19.34 42.74,19.61 44.43,19.87 46.02,20.11 47.49,20.34 48.83,20.54 50.00,20.71"/><polyline fill="none" stroke="#78928a" stroke-width=".25" points="50.00,20.71 51.68,21.12 53.44,21.37 55.26,21.49 57.14,21.48 59.05,21.34 60.98,21.09 62.91,20.74 64.84,20.29 66.74,19.76 68.60,19.15 70.41,18.47 72.15,17.73 73.80,16.95 75.36,16.12 76.80,15.26 78.11,14.38 79.28,13.48 80.28,12.58 81.12,11.68 81.76,10.80 80.85,10.72 79.74,10.70 78.48,10.73 77.06,10.80 75.52,10.92 73.87,11.07 72.13,11.25 70.32,11.47 68.46,11.70 66.56,11.95 64.65,12.21 62.75,12.49 60.87,12.76 59.03,13.04 57.26,13.31 55.57,13.57 53.98,13.81 52.51,14.04 51.17,14.24 50.00,14.41"/><polyline fill="none" stroke="#78928a" stroke-width=".25" points="50.00,55.37 50.87,55.17 51.76,54.98 52.69,54.78 53.64,54.58 54.61,54.38 55.60,54.18 56.61,53.98 57.64,53.78 58.69,53.57 59.74,53.36 60.81,53.15 61.88,52.94 62.96,52.73 64.05,52.52 65.14,52.31 66.22,52.09 67.30,51.88 68.38,51.66 69.45,51.44 70.52,51.23 71.57,51.01 72.60,50.79 73.62,50.57 74.63,50.35 75.61,50.13 76.57,49.92 77.51,49.70 78.42,49.48 79.31,49.26 80.16,49.04 80.98,48.82 81.76,48.60"/><polyline fill="none" stroke="#78928a" stroke-width=".25" points="61.88,52.94 62.79,52.93 63.60,53.21 64.33,53.70 64.99,54.32 65.59,55.03 66.15,55.73 66.67,56.36 67.17,56.84 67.66,57.12 68.14,57.11"/><polyline fill="none" stroke="#78928a" stroke-width=".25" points="61.88,52.94 62.73,52.73 63.38,52.45 63.88,52.12 64.26,51.76 64.56,51.38 64.81,51.00 65.06,50.64 65.33,50.31 65.66,50.03 66.08,49.82"/><polyline fill="none" stroke="#78928a" stroke-width=".25" points="70.52,51.23 71.44,51.14 72.30,51.20 73.11,51.38 73.87,51.63 74.57,51.92 75.23,52.22 75.85,52.47 76.43,52.64 76.96,52.71 77.47,52.62"/><polyline fill="none" stroke="#78928a" stroke-width=".25" points="70.52,51.23 71.41,51.03 72.18,50.79 72.86,50.53 73.46,50.24 73.99,49.94 74.48,49.65 74.94,49.36 75.38,49.09 75.83,48.86 76.31,48.66"/><polyline fill="none" stroke="#78928a" stroke-width=".25" points="50.00,49.07 49.13,48.87 48.24,48.68 47.31,48.48 46.36,48.28 45.39,48.08 44.40,47.88 43.39,47.68 42.36,47.48 41.31,47.27 40.26,47.06 39.19,46.85 38.12,46.64 37.04,46.43 35.95,46.22 34.86,46.01 33.78,45.79 32.70,45.58 31.62,45.36 30.55,45.14 29.48,44.93 28.43,44.71 27.40,44.49 26.38,44.27 25.37,44.05 24.39,43.83 23.43,43.61 22.49,43.40 21.58,43.18 20.69,42.96 19.84,42.74 19.02,42.52 18.24,42.30"/><polyline fill="none" stroke="#78928a" stroke-width=".25" points="38.12,46.64 37.21,46.63 36.40,46.91 35.67,47.40 35.01,48.02 34.41,48.72 33.85,49.43 33.33,50.05 32.83,50.54 32.34,50.82 31.86,50.81"/><polyline fill="none" stroke="#78928a" stroke-width=".25" points="38.12,46.64 37.27,46.43 36.62,46.15 36.12,45.82 35.74,45.46 35.44,45.08 35.19,44.70 34.94,44.34 34.67,44.01 34.34,43.73 33.92,43.52"/><polyline fill="none" stroke="#78928a" stroke-width=".25" points="29.48,44.93 28.56,44.84 27.70,44.90 26.89,45.08 26.13,45.33 25.43,45.62 24.77,45.91 24.15,46.17 23.57,46.34 23.04,46.41 22.53,46.32"/><polyline fill="none" stroke="#78928a" stroke-width=".25" points="29.48,44.93 28.59,44.73 27.82,44.49 27.14,44.23 26.54,43.94 26.01,43.64 25.52,43.35 25.06,43.06 24.62,42.79 24.17,42.56 23.69,42.36"/><polyline fill="none" stroke="#78928a" stroke-width=".25" points="50.00,42.77 50.87,42.57 51.76,42.38 52.69,42.18 53.64,41.98 54.61,41.78 55.60,41.58 56.61,41.38 57.64,41.17 58.69,40.97 59.74,40.76 60.81,40.55 61.88,40.34 62.96,40.13 64.05,39.92 65.14,39.71 66.22,39.49 67.30,39.28 68.38,39.06 69.45,38.84 70.52,38.63 71.57,38.41 72.60,38.19 73.62,37.97 74.63,37.75 75.61,37.53 76.57,37.31 77.51,37.09 78.42,36.88 79.31,36.66 80.16,36.44 80.98,36.22 81.76,36.00"/><polyline fill="none" stroke="#78928a" stroke-width=".25" points="61.88,40.34 62.79,40.33 63.60,40.61 64.33,41.09 64.99,41.72 65.59,42.42 66.15,43.13 66.67,43.75 67.17,44.24 67.66,44.52 68.14,44.51"/><polyline fill="none" stroke="#78928a" stroke-width=".25" points="61.88,40.34 62.73,40.13 63.38,39.85 63.88,39.52 64.26,39.16 64.56,38.78 64.81,38.40 65.06,38.04 65.33,37.71 65.66,37.43 66.08,37.22"/><polyline fill="none" stroke="#78928a" stroke-width=".25" points="70.52,38.63 71.44,38.54 72.30,38.60 73.11,38.78 73.87,39.03 74.57,39.32 75.23,39.61 75.85,39.87 76.43,40.04 76.96,40.11 77.47,40.02"/><polyline fill="none" stroke="#78928a" stroke-width=".25" points="70.52,38.63 71.41,38.43 72.18,38.19 72.86,37.92 73.46,37.64 73.99,37.34 74.48,37.05 74.94,36.76 75.38,36.49 75.83,36.26 76.31,36.06"/><polyline fill="none" stroke="#78928a" stroke-width=".25" points="50.00,36.47 49.13,36.27 48.24,36.08 47.31,35.88 46.36,35.68 45.39,35.48 44.40,35.28 43.39,35.08 42.36,34.87 41.31,34.67 40.26,34.46 39.19,34.25 38.12,34.04 37.04,33.83 35.95,33.62 34.86,33.41 33.78,33.19 32.70,32.98 31.62,32.76 30.55,32.54 29.48,32.33 28.43,32.11 27.40,31.89 26.38,31.67 25.37,31.45 24.39,31.23 23.43,31.01 22.49,30.79 21.58,30.58 20.69,30.36 19.84,30.14 19.02,29.92 18.24,29.70"/><polyline fill="none" stroke="#78928a" stroke-width=".25" points="38.12,34.04 37.21,34.03 36.40,34.31 35.67,34.79 35.01,35.42 34.41,36.12 33.85,36.82 33.33,37.45 32.83,37.94 32.34,38.22 31.86,38.21"/><polyline fill="none" stroke="#78928a" stroke-width=".25" points="38.12,34.04 37.27,33.83 36.62,33.55 36.12,33.22 35.74,32.86 35.44,32.48 35.19,32.10 34.94,31.74 34.67,31.41 34.34,31.13 33.92,30.92"/><polyline fill="none" stroke="#78928a" stroke-width=".25" points="29.48,32.33 28.56,32.24 27.70,32.30 26.89,32.48 26.13,32.73 25.43,33.02 24.77,33.31 24.15,33.57 23.57,33.74 23.04,33.81 22.53,33.72"/><polyline fill="none" stroke="#78928a" stroke-width=".25" points="29.48,32.33 28.59,32.13 27.82,31.89 27.14,31.62 26.54,31.34 26.01,31.04 25.52,30.75 25.06,30.46 24.62,30.19 24.17,29.96 23.69,29.76"/><polyline fill="none" stroke="#78928a" stroke-width=".25" points="50.00,30.16 50.87,29.97 51.76,29.78 52.69,29.58 53.64,29.38 54.61,29.18 55.60,28.98 56.61,28.78 57.64,28.57 58.69,28.37 59.74,28.16 60.81,27.95 61.88,27.74 62.96,27.53 64.05,27.32 65.14,27.10 66.22,26.89 67.30,26.68 68.38,26.46 69.45,26.24 70.52,26.03 71.57,25.81 72.60,25.59 73.62,25.37 74.63,25.15 75.61,24.93 76.57,24.71 77.51,24.49 78.42,24.27 79.31,24.06 80.16,23.84 80.98,23.62 81.76,23.40"/><polyline fill="none" stroke="#78928a" stroke-width=".25" points="61.88,27.74 62.79,27.73 63.60,28.01 64.33,28.49 64.99,29.12 65.59,29.82 66.15,30.52 66.67,31.15 67.17,31.64 67.66,31.92 68.14,31.91"/><polyline fill="none" stroke="#78928a" stroke-width=".25" points="61.88,27.74 62.73,27.53 63.38,27.25 63.88,26.92 64.26,26.56 64.56,26.18 64.81,25.80 65.06,25.44 65.33,25.11 65.66,24.83 66.08,24.61"/><polyline fill="none" stroke="#78928a" stroke-width=".25" points="70.52,26.03 71.44,25.94 72.30,26.00 73.11,26.18 73.87,26.43 74.57,26.72 75.23,27.01 75.85,27.27 76.43,27.44 76.96,27.51 77.47,27.42"/><polyline fill="none" stroke="#78928a" stroke-width=".25" points="70.52,26.03 71.41,25.83 72.18,25.59 72.86,25.32 73.46,25.04 73.99,24.74 74.48,24.45 74.94,24.16 75.38,23.89 75.83,23.66 76.31,23.46"/><polyline fill="none" stroke="#78928a" stroke-width=".25" points="50.00,23.86 49.13,23.67 48.24,23.48 47.31,23.28 46.36,23.08 45.39,22.88 44.40,22.68 43.39,22.48 42.36,22.27 41.31,22.07 40.26,21.86 39.19,21.65 38.12,21.44 37.04,21.23 35.95,21.02 34.86,20.80 33.78,20.59 32.70,20.38 31.62,20.16 30.55,19.94 29.48,19.73 28.43,19.51 27.40,19.29 26.38,19.07 25.37,18.85 24.39,18.63 23.43,18.41 22.49,18.19 21.58,17.97 20.69,17.75 19.84,17.54 19.02,17.32 18.24,17.10"/><polyline fill="none" stroke="#78928a" stroke-width=".25" points="38.12,21.44 37.21,21.43 36.40,21.71 35.67,22.19 35.01,22.82 34.41,23.52 33.85,24.22 33.33,24.85 32.83,25.34 32.34,25.62 31.86,25.61"/><polyline fill="none" stroke="#78928a" stroke-width=".25" points="38.12,21.44 37.27,21.23 36.62,20.95 36.12,20.62 35.74,20.26 35.44,19.88 35.19,19.50 34.94,19.14 34.67,18.81 34.34,18.53 33.92,18.31"/><polyline fill="none" stroke="#78928a" stroke-width=".25" points="29.48,19.73 28.56,19.64 27.70,19.70 26.89,19.88 26.13,20.13 25.43,20.42 24.77,20.71 24.15,20.97 23.57,21.14 23.04,21.21 22.53,21.12"/><polyline fill="none" stroke="#78928a" stroke-width=".25" points="29.48,19.73 28.59,19.53 27.82,19.29 27.14,19.02 26.54,18.74 26.01,18.44 25.52,18.15 25.06,17.86 24.62,17.59 24.17,17.35 23.69,17.16"/><polyline fill="none" stroke="#78928a" stroke-width=".25" points="50.00,17.56 50.87,17.37 51.76,17.18 52.69,16.98 53.64,16.78 54.61,16.58 55.60,16.38 56.61,16.18 57.64,15.97 58.69,15.77 59.74,15.56 60.81,15.35 61.88,15.14 62.96,14.93 64.05,14.72 65.14,14.50 66.22,14.29 67.30,14.07 68.38,13.86 69.45,13.64 70.52,13.43 71.57,13.21 72.60,12.99 73.62,12.77 74.63,12.55 75.61,12.33 76.57,12.11 77.51,11.89 78.42,11.67 79.31,11.45 80.16,11.24 80.98,11.02 81.76,10.80"/><polyline fill="none" stroke="#78928a" stroke-width=".25" points="61.88,15.14 62.79,15.13 63.60,15.41 64.33,15.89 64.99,16.52 65.59,17.22 66.15,17.92 66.67,18.55 67.17,19.04 67.66,19.32 68.14,19.31"/><polyline fill="none" stroke="#78928a" stroke-width=".25" points="61.88,15.14 62.73,14.93 63.38,14.65 63.88,14.32 64.26,13.96 64.56,13.58 64.81,13.20 65.06,12.84 65.33,12.51 65.66,12.23 66.08,12.01"/><polyline fill="none" stroke="#78928a" stroke-width=".25" points="70.52,13.43 71.44,13.34 72.30,13.40 73.11,13.58 73.87,13.83 74.57,14.12 75.23,14.41 75.85,14.67 76.43,14.84 76.96,14.91 77.47,14.82"/><polyline fill="none" stroke="#78928a" stroke-width=".25" points="70.52,13.43 71.41,13.23 72.18,12.99 72.86,12.72 73.46,12.44 73.99,12.14 74.48,11.84 74.94,11.56 75.38,11.29 75.83,11.05 76.31,10.86"/><polyline fill="none" stroke="#78928a" stroke-width=".6" points="50.00,61.43 49.97,60.56 49.93,59.67 49.91,58.78 49.88,57.89 49.86,56.99 49.84,56.09 49.83,55.18 49.82,54.27 49.81,53.36 49.80,52.44 49.79,51.52 49.79,50.60 49.79,49.67 49.79,48.75 49.80,47.82 49.80,46.89 49.81,45.96 49.82,45.03 49.83,44.10 49.84,43.17 49.85,42.23 49.87,41.30 49.88,40.37 49.90,39.44 49.91,38.51 49.93,37.59 49.95,36.66 49.96,35.74 49.98,34.82 50.00,33.91 50.02,32.99 50.04,32.08 50.05,31.18 50.07,30.27 50.09,29.38 50.10,28.48 50.12,27.59 50.13,26.71 50.15,25.83 50.16,24.96 50.17,24.10 50.18,23.24 50.19,22.39 50.20,21.54 50.20,20.70 50.21,19.87 50.21,19.05 50.21,18.24 50.21,17.43 50.20,16.63 50.19,15.85 50.18,15.07 50.17,14.30 50.16,13.54 50.14,12.80 50.12,12.06 50.09,11.33 50.07,10.62 50.03,9.91 50.00,9.22"/><rect x="46.98" y="57.58" width="1" height="1" fill="#92a19a"/><rect x="49.50" y="58.02" width="1" height="1" fill="#379879"/><rect x="53.45" y="58.72" width="1" height="1" fill="#379879"/><rect x="57.56" y="58.73" width="1" height="1" fill="#379879"/><rect x="61.59" y="58.20" width="1" height="1" fill="#379879"/><rect x="65.46" y="57.29" width="1" height="1" fill="#379879"/><rect x="69.12" y="56.08" width="1" height="1" fill="#379879"/><rect x="72.55" y="54.62" width="1" height="1" fill="#379879"/><rect x="75.71" y="52.92" width="1" height="1" fill="#379879"/><rect x="78.52" y="50.99" width="1" height="1" fill="#379879"/><rect x="80.78" y="48.78" width="1" height="1" fill="#379879"/><rect x="78.32" y="48.02" width="1" height="1" fill="#379879"/><rect x="74.22" y="48.29" width="1" height="1" fill="#379879"/><rect x="70.16" y="48.73" width="1" height="1" fill="#379879"/><rect x="66.12" y="49.24" width="1" height="1" fill="#379879"/><rect x="62.10" y="49.81" width="1" height="1" fill="#379879"/><rect x="58.09" y="50.41" width="1" height="1" fill="#379879"/><rect x="54.08" y="51.02" width="1" height="1" fill="#379879"/><rect x="50.07" y="51.63" width="1" height="1" fill="#379879"/><rect x="46.13" y="52.37" width="1" height="1" fill="#379879"/><rect x="42.02" y="52.46" width="1" height="1" fill="#379879"/><rect x="37.97" y="52.00" width="1" height="1" fill="#379879"/><rect x="34.08" y="51.14" width="1" height="1" fill="#379879"/><rect x="30.39" y="49.97" width="1" height="1" fill="#379879"/><rect x="26.93" y="48.54" width="1" height="1" fill="#379879"/><rect x="23.72" y="46.88" width="1" height="1" fill="#379879"/><rect x="20.85" y="44.98" width="1" height="1" fill="#379879"/><rect x="18.50" y="42.82" width="1" height="1" fill="#379879"/><rect x="20.09" y="41.70" width="1" height="1" fill="#379879"/><rect x="24.19" y="41.94" width="1" height="1" fill="#379879"/><rect x="28.26" y="42.36" width="1" height="1" fill="#379879"/><rect x="32.30" y="42.87" width="1" height="1" fill="#379879"/><rect x="36.33" y="43.43" width="1" height="1" fill="#379879"/><rect x="40.34" y="44.02" width="1" height="1" fill="#379879"/><rect x="44.35" y="44.63" width="1" height="1" fill="#379879"/><rect x="48.35" y="45.25" width="1" height="1" fill="#379879"/><rect x="52.29" y="46.00" width="1" height="1" fill="#379879"/><rect x="56.39" y="46.18" width="1" height="1" fill="#379879"/><rect x="60.46" y="45.79" width="1" height="1" fill="#379879"/><rect x="64.37" y="44.98" width="1" height="1" fill="#379879"/><rect x="68.09" y="43.85" width="1" height="1" fill="#379879"/><rect x="71.59" y="42.46" width="1" height="1" fill="#379879"/><rect x="74.84" y="40.83" width="1" height="1" fill="#379879"/><rect x="77.76" y="38.97" width="1" height="1" fill="#379879"/><rect x="80.21" y="36.84" width="1" height="1" fill="#379879"/><rect x="79.49" y="35.40" width="1" height="1" fill="#379879"/><rect x="75.39" y="35.59" width="1" height="1" fill="#379879"/><rect x="71.32" y="35.99" width="1" height="1" fill="#379879"/><rect x="67.27" y="36.49" width="1" height="1" fill="#379879"/><rect x="63.25" y="37.04" width="1" height="1" fill="#379879"/><rect x="59.23" y="37.63" width="1" height="1" fill="#379879"/><rect x="55.23" y="38.24" width="1" height="1" fill="#379879"/><rect x="51.22" y="38.86" width="1" height="1" fill="#379879"/><rect x="47.28" y="39.61" width="1" height="1" fill="#379879"/><rect x="43.20" y="39.90" width="1" height="1" fill="#379879"/><rect x="39.12" y="39.58" width="1" height="1" fill="#379879"/><rect x="35.18" y="38.82" width="1" height="1" fill="#379879"/><rect x="31.43" y="37.73" width="1" height="1" fill="#379879"/><rect x="27.89" y="36.37" width="1" height="1" fill="#379879"/><rect x="24.61" y="34.78" width="1" height="1" fill="#379879"/><rect x="21.63" y="32.95" width="1" height="1" fill="#379879"/><rect x="19.10" y="30.86" width="1" height="1" fill="#379879"/><rect x="18.92" y="29.11" width="1" height="1" fill="#379879"/><rect x="23.03" y="29.25" width="1" height="1" fill="#379879"/><rect x="27.10" y="29.63" width="1" height="1" fill="#379879"/><rect x="31.15" y="30.11" width="1" height="1" fill="#379879"/><rect x="35.18" y="30.66" width="1" height="1" fill="#379879"/><rect x="39.19" y="31.25" width="1" height="1" fill="#379879"/><rect x="43.20" y="31.86" width="1" height="1" fill="#379879"/><rect x="47.21" y="32.47" width="1" height="1" fill="#379879"/><rect x="51.15" y="33.21" width="1" height="1" fill="#379879"/><rect x="55.21" y="33.60" width="1" height="1" fill="#379879"/><rect x="59.31" y="33.35" width="1" height="1" fill="#379879"/><rect x="63.27" y="32.65" width="1" height="1" fill="#379879"/><rect x="67.05" y="31.60" width="1" height="1" fill="#379879"/><rect x="70.62" y="30.28" width="1" height="1" fill="#379879"/><rect x="73.94" y="28.72" width="1" height="1" fill="#379879"/><rect x="76.97" y="26.92" width="1" height="1" fill="#379879"/><rect x="79.57" y="24.88" width="1" height="1" fill="#379879"/><rect x="80.67" y="22.84" width="1" height="1" fill="#379879"/><rect x="76.56" y="22.90" width="1" height="1" fill="#379879"/><rect x="72.48" y="23.26" width="1" height="1" fill="#379879"/><rect x="68.43" y="23.74" width="1" height="1" fill="#379879"/><rect x="64.40" y="24.28" width="1" height="1" fill="#379879"/><rect x="60.38" y="24.86" width="1" height="1" fill="#379879"/><rect x="56.37" y="25.47" width="1" height="1" fill="#379879"/><rect x="52.36" y="26.08" width="1" height="1" fill="#379879"/><rect x="48.41" y="26.80" width="1" height="1" fill="#379879"/><rect x="44.38" y="27.29" width="1" height="1" fill="#379879"/><rect x="40.27" y="27.12" width="1" height="1" fill="#379879"/><rect x="36.28" y="26.47" width="1" height="1" fill="#379879"/><rect x="32.48" y="25.47" width="1" height="1" fill="#379879"/><rect x="28.88" y="24.18" width="1" height="1" fill="#379879"/><rect x="25.52" y="22.65" width="1" height="1" fill="#379879"/><rect x="22.45" y="20.89" width="1" height="1" fill="#379879"/><rect x="19.77" y="18.89" width="1" height="1" fill="#379879"/><rect x="17.75" y="16.60" width="1" height="1" fill="#379879"/><rect x="21.86" y="16.57" width="1" height="1" fill="#379879"/><rect x="25.94" y="16.90" width="1" height="1" fill="#379879"/><rect x="29.99" y="17.37" width="1" height="1" fill="#379879"/><rect x="34.03" y="17.90" width="1" height="1" fill="#379879"/><rect x="38.05" y="18.48" width="1" height="1" fill="#379879"/><rect x="42.06" y="19.08" width="1" height="1" fill="#379879"/><rect x="46.06" y="19.70" width="1" height="1" fill="#379879"/><rect x="50.04" y="20.36" width="1" height="1" fill="#379879"/><rect x="54.04" y="20.96" width="1" height="1" fill="#379879"/><rect x="58.15" y="20.88" width="1" height="1" fill="#379879"/><rect x="62.16" y="20.29" width="1" height="1" fill="#379879"/><rect x="65.99" y="19.33" width="1" height="1" fill="#379879"/><rect x="69.62" y="18.08" width="1" height="1" fill="#379879"/><rect x="73.02" y="16.59" width="1" height="1" fill="#379879"/><rect x="76.14" y="14.86" width="1" height="1" fill="#379879"/><rect x="78.88" y="12.89" width="1" height="1" fill="#379879"/><rect x="81.03" y="10.64" width="1" height="1" fill="#379879"/><rect x="77.73" y="10.24" width="1" height="1" fill="#379879"/><rect x="73.64" y="10.54" width="1" height="1" fill="#379879"/><rect x="69.58" y="10.99" width="1" height="1" fill="#379879"/><rect x="65.55" y="11.52" width="1" height="1" fill="#379879"/><rect x="61.53" y="12.09" width="1" height="1" fill="#379879"/><rect x="57.51" y="12.69" width="1" height="1" fill="#379879"/><rect x="53.51" y="13.31" width="1" height="1" fill="#379879"/><rect x="49.50" y="13.91" width="1" height="1" fill="#379879"/></g><g transform="translate(0 68)"><text x="5" y="9" font-family="sans-serif" font-size="6" fill="#4d95af">C</text><polyline fill="none" stroke="#78928a" stroke-width=".25" points="50.00,58.52 51.68,58.92 53.44,59.18 55.26,59.29 57.14,59.28 59.05,59.14 60.98,58.89 62.91,58.54 64.84,58.09 66.74,57.56 68.60,56.95 70.41,56.27 72.15,55.53 73.80,54.75 75.36,53.92 76.80,53.06 78.11,52.18 79.28,51.28 80.28,50.38 81.12,49.48 81.76,48.60 80.85,48.52 79.74,48.50 78.48,48.53 77.06,48.61 75.52,48.72 73.87,48.87 72.13,49.06 70.32,49.27 68.46,49.50 66.56,49.75 64.65,50.02 62.75,50.29 60.87,50.56 59.03,50.84 57.26,51.11 55.57,51.37 53.98,51.61 52.51,51.84 51.17,52.04 50.00,52.22"/><polyline fill="none" stroke="#78928a" stroke-width=".25" points="50.00,52.22 48.32,52.62 46.56,52.88 44.74,52.99 42.86,52.98 40.95,52.84 39.02,52.59 37.09,52.24 35.16,51.79 33.26,51.26 31.40,50.65 29.59,49.97 27.85,49.23 26.20,48.45 24.64,47.62 23.20,46.76 21.89,45.88 20.72,44.98 19.72,44.08 18.88,43.18 18.24,42.30 19.15,42.22 20.26,42.20 21.52,42.23 22.94,42.31 24.48,42.42 26.13,42.57 27.87,42.76 29.68,42.97 31.54,43.20 33.44,43.45 35.35,43.71 37.25,43.99 39.13,44.26 40.97,44.54 42.74,44.81 44.43,45.07 46.02,45.31 47.49,45.54 48.83,45.74 50.00,45.92"/><polyline fill="none" stroke="#78928a" stroke-width=".25" points="50.00,45.92 51.68,46.32 53.44,46.58 55.26,46.69 57.14,46.68 59.05,46.54 60.98,46.29 62.91,45.94 64.84,45.49 66.74,44.96 68.60,44.35 70.41,43.67 72.15,42.93 73.80,42.15 75.36,41.32 76.80,40.46 78.11,39.58 79.28,38.68 80.28,37.78 81.12,36.88 81.76,36.00 80.85,35.92 79.74,35.90 78.48,35.93 77.06,36.00 75.52,36.12 73.87,36.27 72.13,36.46 70.32,36.67 68.46,36.90 66.56,37.15 64.65,37.41 62.75,37.69 60.87,37.96 59.03,38.24 57.26,38.51 55.57,38.77 53.98,39.01 52.51,39.24 51.17,39.44 50.00,39.62"/><polyline fill="none" stroke="#78928a" stroke-width=".25" points="50.00,39.62 48.32,40.02 46.56,40.27 44.74,40.39 42.86,40.38 40.95,40.24 39.02,39.99 37.09,39.64 35.16,39.19 33.26,38.66 31.40,38.05 29.59,37.37 27.85,36.63 26.20,35.85 24.64,35.02 23.20,34.16 21.89,33.28 20.72,32.38 19.72,31.48 18.88,30.58 18.24,29.70 19.15,29.62 20.26,29.60 21.52,29.63 22.94,29.70 24.48,29.82 26.13,29.97 27.87,30.16 29.68,30.37 31.54,30.60 33.44,30.85 35.35,31.11 37.25,31.39 39.13,31.66 40.97,31.94 42.74,32.21 44.43,32.47 46.02,32.71 47.49,32.94 48.83,33.14 50.00,33.31"/><polyline fill="none" stroke="#78928a" stroke-width=".25" points="50.00,33.31 51.68,33.72 53.44,33.97 55.26,34.09 57.14,34.08 59.05,33.94 60.98,33.69 62.91,33.34 64.84,32.89 66.74,32.36 68.60,31.75 70.41,31.07 72.15,30.33 73.80,29.55 75.36,28.72 76.80,27.86 78.11,26.98 79.28,26.08 80.28,25.18 81.12,24.28 81.76,23.40 80.85,23.32 79.74,23.30 78.48,23.33 77.06,23.40 75.52,23.52 73.87,23.67 72.13,23.86 70.32,24.07 68.46,24.30 66.56,24.55 64.65,24.81 62.75,25.09 60.87,25.36 59.03,25.64 57.26,25.91 55.57,26.17 53.98,26.41 52.51,26.64 51.17,26.84 50.00,27.01"/><polyline fill="none" stroke="#78928a" stroke-width=".25" points="50.00,27.01 48.32,27.42 46.56,27.67 44.74,27.79 42.86,27.78 40.95,27.64 39.02,27.39 37.09,27.04 35.16,26.59 33.26,26.06 31.40,25.45 29.59,24.77 27.85,24.03 26.20,23.25 24.64,22.42 23.20,21.56 21.89,20.68 20.72,19.78 19.72,18.88 18.88,17.98 18.24,17.10 19.15,17.02 20.26,17.00 21.52,17.03 22.94,17.10 24.48,17.22 26.13,17.37 27.87,17.56 29.68,17.77 31.54,18.00 33.44,18.25 35.35,18.51 37.25,18.79 39.13,19.06 40.97,19.34 42.74,19.61 44.43,19.87 46.02,20.11 47.49,20.34 48.83,20.54 50.00,20.71"/><polyline fill="none" stroke="#78928a" stroke-width=".25" points="50.00,20.71 51.68,21.12 53.44,21.37 55.26,21.49 57.14,21.48 59.05,21.34 60.98,21.09 62.91,20.74 64.84,20.29 66.74,19.76 68.60,19.15 70.41,18.47 72.15,17.73 73.80,16.95 75.36,16.12 76.80,15.26 78.11,14.38 79.28,13.48 80.28,12.58 81.12,11.68 81.76,10.80 80.85,10.72 79.74,10.70 78.48,10.73 77.06,10.80 75.52,10.92 73.87,11.07 72.13,11.25 70.32,11.47 68.46,11.70 66.56,11.95 64.65,12.21 62.75,12.49 60.87,12.76 59.03,13.04 57.26,13.31 55.57,13.57 53.98,13.81 52.51,14.04 51.17,14.24 50.00,14.41"/><polyline fill="none" stroke="#78928a" stroke-width=".25" points="50.00,55.37 50.87,55.17 51.76,54.98 52.69,54.78 53.64,54.58 54.61,54.38 55.60,54.18 56.61,53.98 57.64,53.78 58.69,53.57 59.74,53.36 60.81,53.15 61.88,52.94 62.96,52.73 64.05,52.52 65.14,52.31 66.22,52.09 67.30,51.88 68.38,51.66 69.45,51.44 70.52,51.23 71.57,51.01 72.60,50.79 73.62,50.57 74.63,50.35 75.61,50.13 76.57,49.92 77.51,49.70 78.42,49.48 79.31,49.26 80.16,49.04 80.98,48.82 81.76,48.60"/><polyline fill="none" stroke="#78928a" stroke-width=".25" points="61.88,52.94 62.79,52.93 63.60,53.21 64.33,53.70 64.99,54.32 65.59,55.03 66.15,55.73 66.67,56.36 67.17,56.84 67.66,57.12 68.14,57.11"/><polyline fill="none" stroke="#78928a" stroke-width=".25" points="61.88,52.94 62.73,52.73 63.38,52.45 63.88,52.12 64.26,51.76 64.56,51.38 64.81,51.00 65.06,50.64 65.33,50.31 65.66,50.03 66.08,49.82"/><polyline fill="none" stroke="#78928a" stroke-width=".25" points="70.52,51.23 71.44,51.14 72.30,51.20 73.11,51.38 73.87,51.63 74.57,51.92 75.23,52.22 75.85,52.47 76.43,52.64 76.96,52.71 77.47,52.62"/><polyline fill="none" stroke="#78928a" stroke-width=".25" points="70.52,51.23 71.41,51.03 72.18,50.79 72.86,50.53 73.46,50.24 73.99,49.94 74.48,49.65 74.94,49.36 75.38,49.09 75.83,48.86 76.31,48.66"/><polyline fill="none" stroke="#78928a" stroke-width=".25" points="50.00,49.07 49.13,48.87 48.24,48.68 47.31,48.48 46.36,48.28 45.39,48.08 44.40,47.88 43.39,47.68 42.36,47.48 41.31,47.27 40.26,47.06 39.19,46.85 38.12,46.64 37.04,46.43 35.95,46.22 34.86,46.01 33.78,45.79 32.70,45.58 31.62,45.36 30.55,45.14 29.48,44.93 28.43,44.71 27.40,44.49 26.38,44.27 25.37,44.05 24.39,43.83 23.43,43.61 22.49,43.40 21.58,43.18 20.69,42.96 19.84,42.74 19.02,42.52 18.24,42.30"/><polyline fill="none" stroke="#78928a" stroke-width=".25" points="38.12,46.64 37.21,46.63 36.40,46.91 35.67,47.40 35.01,48.02 34.41,48.72 33.85,49.43 33.33,50.05 32.83,50.54 32.34,50.82 31.86,50.81"/><polyline fill="none" stroke="#78928a" stroke-width=".25" points="38.12,46.64 37.27,46.43 36.62,46.15 36.12,45.82 35.74,45.46 35.44,45.08 35.19,44.70 34.94,44.34 34.67,44.01 34.34,43.73 33.92,43.52"/><polyline fill="none" stroke="#78928a" stroke-width=".25" points="29.48,44.93 28.56,44.84 27.70,44.90 26.89,45.08 26.13,45.33 25.43,45.62 24.77,45.91 24.15,46.17 23.57,46.34 23.04,46.41 22.53,46.32"/><polyline fill="none" stroke="#78928a" stroke-width=".25" points="29.48,44.93 28.59,44.73 27.82,44.49 27.14,44.23 26.54,43.94 26.01,43.64 25.52,43.35 25.06,43.06 24.62,42.79 24.17,42.56 23.69,42.36"/><polyline fill="none" stroke="#78928a" stroke-width=".25" points="50.00,42.77 50.87,42.57 51.76,42.38 52.69,42.18 53.64,41.98 54.61,41.78 55.60,41.58 56.61,41.38 57.64,41.17 58.69,40.97 59.74,40.76 60.81,40.55 61.88,40.34 62.96,40.13 64.05,39.92 65.14,39.71 66.22,39.49 67.30,39.28 68.38,39.06 69.45,38.84 70.52,38.63 71.57,38.41 72.60,38.19 73.62,37.97 74.63,37.75 75.61,37.53 76.57,37.31 77.51,37.09 78.42,36.88 79.31,36.66 80.16,36.44 80.98,36.22 81.76,36.00"/><polyline fill="none" stroke="#78928a" stroke-width=".25" points="61.88,40.34 62.79,40.33 63.60,40.61 64.33,41.09 64.99,41.72 65.59,42.42 66.15,43.13 66.67,43.75 67.17,44.24 67.66,44.52 68.14,44.51"/><polyline fill="none" stroke="#78928a" stroke-width=".25" points="61.88,40.34 62.73,40.13 63.38,39.85 63.88,39.52 64.26,39.16 64.56,38.78 64.81,38.40 65.06,38.04 65.33,37.71 65.66,37.43 66.08,37.22"/><polyline fill="none" stroke="#78928a" stroke-width=".25" points="70.52,38.63 71.44,38.54 72.30,38.60 73.11,38.78 73.87,39.03 74.57,39.32 75.23,39.61 75.85,39.87 76.43,40.04 76.96,40.11 77.47,40.02"/><polyline fill="none" stroke="#78928a" stroke-width=".25" points="70.52,38.63 71.41,38.43 72.18,38.19 72.86,37.92 73.46,37.64 73.99,37.34 74.48,37.05 74.94,36.76 75.38,36.49 75.83,36.26 76.31,36.06"/><polyline fill="none" stroke="#78928a" stroke-width=".25" points="50.00,36.47 49.13,36.27 48.24,36.08 47.31,35.88 46.36,35.68 45.39,35.48 44.40,35.28 43.39,35.08 42.36,34.87 41.31,34.67 40.26,34.46 39.19,34.25 38.12,34.04 37.04,33.83 35.95,33.62 34.86,33.41 33.78,33.19 32.70,32.98 31.62,32.76 30.55,32.54 29.48,32.33 28.43,32.11 27.40,31.89 26.38,31.67 25.37,31.45 24.39,31.23 23.43,31.01 22.49,30.79 21.58,30.58 20.69,30.36 19.84,30.14 19.02,29.92 18.24,29.70"/><polyline fill="none" stroke="#78928a" stroke-width=".25" points="38.12,34.04 37.21,34.03 36.40,34.31 35.67,34.79 35.01,35.42 34.41,36.12 33.85,36.82 33.33,37.45 32.83,37.94 32.34,38.22 31.86,38.21"/><polyline fill="none" stroke="#78928a" stroke-width=".25" points="38.12,34.04 37.27,33.83 36.62,33.55 36.12,33.22 35.74,32.86 35.44,32.48 35.19,32.10 34.94,31.74 34.67,31.41 34.34,31.13 33.92,30.92"/><polyline fill="none" stroke="#78928a" stroke-width=".25" points="29.48,32.33 28.56,32.24 27.70,32.30 26.89,32.48 26.13,32.73 25.43,33.02 24.77,33.31 24.15,33.57 23.57,33.74 23.04,33.81 22.53,33.72"/><polyline fill="none" stroke="#78928a" stroke-width=".25" points="29.48,32.33 28.59,32.13 27.82,31.89 27.14,31.62 26.54,31.34 26.01,31.04 25.52,30.75 25.06,30.46 24.62,30.19 24.17,29.96 23.69,29.76"/><polyline fill="none" stroke="#78928a" stroke-width=".25" points="50.00,30.16 50.87,29.97 51.76,29.78 52.69,29.58 53.64,29.38 54.61,29.18 55.60,28.98 56.61,28.78 57.64,28.57 58.69,28.37 59.74,28.16 60.81,27.95 61.88,27.74 62.96,27.53 64.05,27.32 65.14,27.10 66.22,26.89 67.30,26.68 68.38,26.46 69.45,26.24 70.52,26.03 71.57,25.81 72.60,25.59 73.62,25.37 74.63,25.15 75.61,24.93 76.57,24.71 77.51,24.49 78.42,24.27 79.31,24.06 80.16,23.84 80.98,23.62 81.76,23.40"/><polyline fill="none" stroke="#78928a" stroke-width=".25" points="61.88,27.74 62.79,27.73 63.60,28.01 64.33,28.49 64.99,29.12 65.59,29.82 66.15,30.52 66.67,31.15 67.17,31.64 67.66,31.92 68.14,31.91"/><polyline fill="none" stroke="#78928a" stroke-width=".25" points="61.88,27.74 62.73,27.53 63.38,27.25 63.88,26.92 64.26,26.56 64.56,26.18 64.81,25.80 65.06,25.44 65.33,25.11 65.66,24.83 66.08,24.61"/><polyline fill="none" stroke="#78928a" stroke-width=".25" points="70.52,26.03 71.44,25.94 72.30,26.00 73.11,26.18 73.87,26.43 74.57,26.72 75.23,27.01 75.85,27.27 76.43,27.44 76.96,27.51 77.47,27.42"/><polyline fill="none" stroke="#78928a" stroke-width=".25" points="70.52,26.03 71.41,25.83 72.18,25.59 72.86,25.32 73.46,25.04 73.99,24.74 74.48,24.45 74.94,24.16 75.38,23.89 75.83,23.66 76.31,23.46"/><polyline fill="none" stroke="#78928a" stroke-width=".25" points="50.00,23.86 49.13,23.67 48.24,23.48 47.31,23.28 46.36,23.08 45.39,22.88 44.40,22.68 43.39,22.48 42.36,22.27 41.31,22.07 40.26,21.86 39.19,21.65 38.12,21.44 37.04,21.23 35.95,21.02 34.86,20.80 33.78,20.59 32.70,20.38 31.62,20.16 30.55,19.94 29.48,19.73 28.43,19.51 27.40,19.29 26.38,19.07 25.37,18.85 24.39,18.63 23.43,18.41 22.49,18.19 21.58,17.97 20.69,17.75 19.84,17.54 19.02,17.32 18.24,17.10"/><polyline fill="none" stroke="#78928a" stroke-width=".25" points="38.12,21.44 37.21,21.43 36.40,21.71 35.67,22.19 35.01,22.82 34.41,23.52 33.85,24.22 33.33,24.85 32.83,25.34 32.34,25.62 31.86,25.61"/><polyline fill="none" stroke="#78928a" stroke-width=".25" points="38.12,21.44 37.27,21.23 36.62,20.95 36.12,20.62 35.74,20.26 35.44,19.88 35.19,19.50 34.94,19.14 34.67,18.81 34.34,18.53 33.92,18.31"/><polyline fill="none" stroke="#78928a" stroke-width=".25" points="29.48,19.73 28.56,19.64 27.70,19.70 26.89,19.88 26.13,20.13 25.43,20.42 24.77,20.71 24.15,20.97 23.57,21.14 23.04,21.21 22.53,21.12"/><polyline fill="none" stroke="#78928a" stroke-width=".25" points="29.48,19.73 28.59,19.53 27.82,19.29 27.14,19.02 26.54,18.74 26.01,18.44 25.52,18.15 25.06,17.86 24.62,17.59 24.17,17.35 23.69,17.16"/><polyline fill="none" stroke="#78928a" stroke-width=".25" points="50.00,17.56 50.87,17.37 51.76,17.18 52.69,16.98 53.64,16.78 54.61,16.58 55.60,16.38 56.61,16.18 57.64,15.97 58.69,15.77 59.74,15.56 60.81,15.35 61.88,15.14 62.96,14.93 64.05,14.72 65.14,14.50 66.22,14.29 67.30,14.07 68.38,13.86 69.45,13.64 70.52,13.43 71.57,13.21 72.60,12.99 73.62,12.77 74.63,12.55 75.61,12.33 76.57,12.11 77.51,11.89 78.42,11.67 79.31,11.45 80.16,11.24 80.98,11.02 81.76,10.80"/><polyline fill="none" stroke="#78928a" stroke-width=".25" points="61.88,15.14 62.79,15.13 63.60,15.41 64.33,15.89 64.99,16.52 65.59,17.22 66.15,17.92 66.67,18.55 67.17,19.04 67.66,19.32 68.14,19.31"/><polyline fill="none" stroke="#78928a" stroke-width=".25" points="61.88,15.14 62.73,14.93 63.38,14.65 63.88,14.32 64.26,13.96 64.56,13.58 64.81,13.20 65.06,12.84 65.33,12.51 65.66,12.23 66.08,12.01"/><polyline fill="none" stroke="#78928a" stroke-width=".25" points="70.52,13.43 71.44,13.34 72.30,13.40 73.11,13.58 73.87,13.83 74.57,14.12 75.23,14.41 75.85,14.67 76.43,14.84 76.96,14.91 77.47,14.82"/><polyline fill="none" stroke="#78928a" stroke-width=".25" points="70.52,13.43 71.41,13.23 72.18,12.99 72.86,12.72 73.46,12.44 73.99,12.14 74.48,11.84 74.94,11.56 75.38,11.29 75.83,11.05 76.31,10.86"/><polyline fill="none" stroke="#78928a" stroke-width=".6" points="50.00,61.43 49.97,60.56 49.93,59.67 49.91,58.78 49.88,57.89 49.86,56.99 49.84,56.09 49.83,55.18 49.82,54.27 49.81,53.36 49.80,52.44 49.79,51.52 49.79,50.60 49.79,49.67 49.79,48.75 49.80,47.82 49.80,46.89 49.81,45.96 49.82,45.03 49.83,44.10 49.84,43.17 49.85,42.23 49.87,41.30 49.88,40.37 49.90,39.44 49.91,38.51 49.93,37.59 49.95,36.66 49.96,35.74 49.98,34.82 50.00,33.91 50.02,32.99 50.04,32.08 50.05,31.18 50.07,30.27 50.09,29.38 50.10,28.48 50.12,27.59 50.13,26.71 50.15,25.83 50.16,24.96 50.17,24.10 50.18,23.24 50.19,22.39 50.20,21.54 50.20,20.70 50.21,19.87 50.21,19.05 50.21,18.24 50.21,17.43 50.20,16.63 50.19,15.85 50.18,15.07 50.17,14.30 50.16,13.54 50.14,12.80 50.12,12.06 50.09,11.33 50.07,10.62 50.03,9.91 50.00,9.22"/><rect x="46.98" y="57.58" width="1" height="1" fill="#92a19a"/><rect x="49.50" y="58.02" width="1" height="1" fill="#4d95af"/><rect x="53.45" y="58.72" width="1" height="1" fill="#4d95af"/><rect x="57.56" y="58.73" width="1" height="1" fill="#4d95af"/><rect x="61.59" y="58.20" width="1" height="1" fill="#4d95af"/><rect x="65.46" y="57.29" width="1" height="1" fill="#4d95af"/><rect x="69.12" y="56.08" width="1" height="1" fill="#4d95af"/><rect x="72.55" y="54.62" width="1" height="1" fill="#4d95af"/><rect x="75.71" y="52.92" width="1" height="1" fill="#4d95af"/><rect x="78.52" y="50.99" width="1" height="1" fill="#4d95af"/><rect x="80.78" y="48.78" width="1" height="1" fill="#4d95af"/><rect x="78.32" y="48.02" width="1" height="1" fill="#4d95af"/><rect x="74.22" y="48.29" width="1" height="1" fill="#4d95af"/><rect x="70.16" y="48.73" width="1" height="1" fill="#4d95af"/><rect x="66.12" y="49.24" width="1" height="1" fill="#4d95af"/><rect x="62.10" y="49.81" width="1" height="1" fill="#4d95af"/><rect x="58.09" y="50.41" width="1" height="1" fill="#4d95af"/><rect x="54.08" y="51.02" width="1" height="1" fill="#4d95af"/><rect x="50.07" y="51.63" width="1" height="1" fill="#4d95af"/><rect x="46.13" y="52.37" width="1" height="1" fill="#4d95af"/><rect x="42.02" y="52.46" width="1" height="1" fill="#4d95af"/><rect x="37.97" y="52.00" width="1" height="1" fill="#4d95af"/><rect x="34.08" y="51.14" width="1" height="1" fill="#4d95af"/><rect x="30.39" y="49.97" width="1" height="1" fill="#4d95af"/><rect x="26.93" y="48.54" width="1" height="1" fill="#4d95af"/><rect x="23.72" y="46.88" width="1" height="1" fill="#4d95af"/><rect x="20.85" y="44.98" width="1" height="1" fill="#4d95af"/><rect x="18.50" y="42.82" width="1" height="1" fill="#4d95af"/><rect x="20.09" y="41.70" width="1" height="1" fill="#4d95af"/><rect x="24.19" y="41.94" width="1" height="1" fill="#4d95af"/><rect x="28.26" y="42.36" width="1" height="1" fill="#4d95af"/><rect x="32.30" y="42.87" width="1" height="1" fill="#4d95af"/><rect x="36.33" y="43.43" width="1" height="1" fill="#4d95af"/><rect x="40.34" y="44.02" width="1" height="1" fill="#4d95af"/><rect x="44.35" y="44.63" width="1" height="1" fill="#4d95af"/><rect x="48.35" y="45.25" width="1" height="1" fill="#4d95af"/><rect x="52.29" y="46.00" width="1" height="1" fill="#4d95af"/><rect x="56.39" y="46.18" width="1" height="1" fill="#4d95af"/><rect x="60.46" y="45.79" width="1" height="1" fill="#4d95af"/><rect x="64.37" y="44.98" width="1" height="1" fill="#4d95af"/><rect x="68.09" y="43.85" width="1" height="1" fill="#4d95af"/><rect x="71.59" y="42.46" width="1" height="1" fill="#4d95af"/><rect x="74.84" y="40.83" width="1" height="1" fill="#4d95af"/><rect x="77.76" y="38.97" width="1" height="1" fill="#4d95af"/><rect x="80.21" y="36.84" width="1" height="1" fill="#4d95af"/><rect x="79.49" y="35.40" width="1" height="1" fill="#4d95af"/><rect x="75.39" y="35.59" width="1" height="1" fill="#4d95af"/><rect x="71.32" y="35.99" width="1" height="1" fill="#4d95af"/><rect x="67.27" y="36.49" width="1" height="1" fill="#4d95af"/><rect x="63.25" y="37.04" width="1" height="1" fill="#4d95af"/><rect x="59.23" y="37.63" width="1" height="1" fill="#4d95af"/><rect x="55.23" y="38.24" width="1" height="1" fill="#4d95af"/><rect x="51.22" y="38.86" width="1" height="1" fill="#4d95af"/><rect x="47.28" y="39.61" width="1" height="1" fill="#4d95af"/><rect x="43.20" y="39.90" width="1" height="1" fill="#4d95af"/><rect x="39.12" y="39.58" width="1" height="1" fill="#4d95af"/><rect x="35.18" y="38.82" width="1" height="1" fill="#4d95af"/><rect x="31.43" y="37.73" width="1" height="1" fill="#4d95af"/><rect x="27.89" y="36.37" width="1" height="1" fill="#4d95af"/><rect x="24.61" y="34.78" width="1" height="1" fill="#4d95af"/><rect x="21.63" y="32.95" width="1" height="1" fill="#4d95af"/><rect x="19.10" y="30.86" width="1" height="1" fill="#4d95af"/><rect x="18.92" y="29.11" width="1" height="1" fill="#4d95af"/><rect x="23.03" y="29.25" width="1" height="1" fill="#4d95af"/><rect x="27.10" y="29.63" width="1" height="1" fill="#4d95af"/><rect x="31.15" y="30.11" width="1" height="1" fill="#4d95af"/><rect x="35.18" y="30.66" width="1" height="1" fill="#4d95af"/><rect x="39.19" y="31.25" width="1" height="1" fill="#4d95af"/><rect x="43.20" y="31.86" width="1" height="1" fill="#4d95af"/><rect x="47.21" y="32.47" width="1" height="1" fill="#4d95af"/><rect x="51.15" y="33.21" width="1" height="1" fill="#4d95af"/><rect x="55.21" y="33.60" width="1" height="1" fill="#4d95af"/><rect x="59.31" y="33.35" width="1" height="1" fill="#4d95af"/><rect x="63.27" y="32.65" width="1" height="1" fill="#4d95af"/><rect x="67.05" y="31.60" width="1" height="1" fill="#4d95af"/><rect x="70.62" y="30.28" width="1" height="1" fill="#4d95af"/><rect x="73.94" y="28.72" width="1" height="1" fill="#4d95af"/><rect x="76.97" y="26.92" width="1" height="1" fill="#4d95af"/><rect x="79.57" y="24.88" width="1" height="1" fill="#4d95af"/><rect x="80.67" y="22.84" width="1" height="1" fill="#4d95af"/><rect x="76.56" y="22.90" width="1" height="1" fill="#4d95af"/><rect x="72.48" y="23.26" width="1" height="1" fill="#4d95af"/><rect x="68.43" y="23.74" width="1" height="1" fill="#4d95af"/><rect x="64.40" y="24.28" width="1" height="1" fill="#4d95af"/><rect x="60.38" y="24.86" width="1" height="1" fill="#4d95af"/><rect x="56.37" y="25.47" width="1" height="1" fill="#4d95af"/><rect x="52.36" y="26.08" width="1" height="1" fill="#4d95af"/><rect x="48.41" y="26.80" width="1" height="1" fill="#4d95af"/><rect x="44.38" y="27.29" width="1" height="1" fill="#4d95af"/><rect x="40.27" y="27.12" width="1" height="1" fill="#4d95af"/><rect x="36.28" y="26.47" width="1" height="1" fill="#4d95af"/><rect x="32.48" y="25.47" width="1" height="1" fill="#4d95af"/><rect x="28.88" y="24.18" width="1" height="1" fill="#4d95af"/><rect x="25.52" y="22.65" width="1" height="1" fill="#4d95af"/><rect x="22.45" y="20.89" width="1" height="1" fill="#4d95af"/><rect x="19.77" y="18.89" width="1" height="1" fill="#4d95af"/><rect x="17.75" y="16.60" width="1" height="1" fill="#4d95af"/><rect x="21.86" y="16.57" width="1" height="1" fill="#4d95af"/><rect x="25.94" y="16.90" width="1" height="1" fill="#4d95af"/><rect x="29.99" y="17.37" width="1" height="1" fill="#4d95af"/><rect x="34.03" y="17.90" width="1" height="1" fill="#4d95af"/><rect x="38.05" y="18.48" width="1" height="1" fill="#4d95af"/><rect x="42.06" y="19.08" width="1" height="1" fill="#4d95af"/><rect x="46.06" y="19.70" width="1" height="1" fill="#4d95af"/><rect x="50.04" y="20.36" width="1" height="1" fill="#4d95af"/><rect x="54.04" y="20.96" width="1" height="1" fill="#4d95af"/><rect x="58.15" y="20.88" width="1" height="1" fill="#4d95af"/><rect x="62.16" y="20.29" width="1" height="1" fill="#4d95af"/><rect x="65.99" y="19.33" width="1" height="1" fill="#4d95af"/><rect x="69.62" y="18.08" width="1" height="1" fill="#4d95af"/><rect x="73.02" y="16.59" width="1" height="1" fill="#4d95af"/><rect x="76.14" y="14.86" width="1" height="1" fill="#4d95af"/><rect x="78.88" y="12.89" width="1" height="1" fill="#4d95af"/></g><g transform="translate(100 68)"><text x="5" y="9" font-family="sans-serif" font-size="6" fill="#c6a522">D</text><polyline fill="none" stroke="#78928a" stroke-width=".25" points="50.00,58.52 51.68,58.92 53.44,59.18 55.26,59.29 57.14,59.28 59.05,59.14 60.98,58.89 62.91,58.54 64.84,58.09 66.74,57.56 68.60,56.95 70.41,56.27 72.15,55.53 73.80,54.75 75.36,53.92 76.80,53.06 78.11,52.18 79.28,51.28 80.28,50.38 81.12,49.48 81.76,48.60 80.85,48.52 79.74,48.50 78.48,48.53 77.06,48.61 75.52,48.72 73.87,48.87 72.13,49.06 70.32,49.27 68.46,49.50 66.56,49.75 64.65,50.02 62.75,50.29 60.87,50.56 59.03,50.84 57.26,51.11 55.57,51.37 53.98,51.61 52.51,51.84 51.17,52.04 50.00,52.22"/><polyline fill="none" stroke="#78928a" stroke-width=".25" points="50.00,52.22 48.32,52.62 46.56,52.88 44.74,52.99 42.86,52.98 40.95,52.84 39.02,52.59 37.09,52.24 35.16,51.79 33.26,51.26 31.40,50.65 29.59,49.97 27.85,49.23 26.20,48.45 24.64,47.62 23.20,46.76 21.89,45.88 20.72,44.98 19.72,44.08 18.88,43.18 18.24,42.30 19.15,42.22 20.26,42.20 21.52,42.23 22.94,42.31 24.48,42.42 26.13,42.57 27.87,42.76 29.68,42.97 31.54,43.20 33.44,43.45 35.35,43.71 37.25,43.99 39.13,44.26 40.97,44.54 42.74,44.81 44.43,45.07 46.02,45.31 47.49,45.54 48.83,45.74 50.00,45.92"/><polyline fill="none" stroke="#78928a" stroke-width=".25" points="50.00,45.92 51.68,46.32 53.44,46.58 55.26,46.69 57.14,46.68 59.05,46.54 60.98,46.29 62.91,45.94 64.84,45.49 66.74,44.96 68.60,44.35 70.41,43.67 72.15,42.93 73.80,42.15 75.36,41.32 76.80,40.46 78.11,39.58 79.28,38.68 80.28,37.78 81.12,36.88 81.76,36.00 80.85,35.92 79.74,35.90 78.48,35.93 77.06,36.00 75.52,36.12 73.87,36.27 72.13,36.46 70.32,36.67 68.46,36.90 66.56,37.15 64.65,37.41 62.75,37.69 60.87,37.96 59.03,38.24 57.26,38.51 55.57,38.77 53.98,39.01 52.51,39.24 51.17,39.44 50.00,39.62"/><polyline fill="none" stroke="#78928a" stroke-width=".25" points="50.00,39.62 48.32,40.02 46.56,40.27 44.74,40.39 42.86,40.38 40.95,40.24 39.02,39.99 37.09,39.64 35.16,39.19 33.26,38.66 31.40,38.05 29.59,37.37 27.85,36.63 26.20,35.85 24.64,35.02 23.20,34.16 21.89,33.28 20.72,32.38 19.72,31.48 18.88,30.58 18.24,29.70 19.15,29.62 20.26,29.60 21.52,29.63 22.94,29.70 24.48,29.82 26.13,29.97 27.87,30.16 29.68,30.37 31.54,30.60 33.44,30.85 35.35,31.11 37.25,31.39 39.13,31.66 40.97,31.94 42.74,32.21 44.43,32.47 46.02,32.71 47.49,32.94 48.83,33.14 50.00,33.31"/><polyline fill="none" stroke="#78928a" stroke-width=".25" points="50.00,33.31 51.68,33.72 53.44,33.97 55.26,34.09 57.14,34.08 59.05,33.94 60.98,33.69 62.91,33.34 64.84,32.89 66.74,32.36 68.60,31.75 70.41,31.07 72.15,30.33 73.80,29.55 75.36,28.72 76.80,27.86 78.11,26.98 79.28,26.08 80.28,25.18 81.12,24.28 81.76,23.40 80.85,23.32 79.74,23.30 78.48,23.33 77.06,23.40 75.52,23.52 73.87,23.67 72.13,23.86 70.32,24.07 68.46,24.30 66.56,24.55 64.65,24.81 62.75,25.09 60.87,25.36 59.03,25.64 57.26,25.91 55.57,26.17 53.98,26.41 52.51,26.64 51.17,26.84 50.00,27.01"/><polyline fill="none" stroke="#78928a" stroke-width=".25" points="50.00,27.01 48.32,27.42 46.56,27.67 44.74,27.79 42.86,27.78 40.95,27.64 39.02,27.39 37.09,27.04 35.16,26.59 33.26,26.06 31.40,25.45 29.59,24.77 27.85,24.03 26.20,23.25 24.64,22.42 23.20,21.56 21.89,20.68 20.72,19.78 19.72,18.88 18.88,17.98 18.24,17.10 19.15,17.02 20.26,17.00 21.52,17.03 22.94,17.10 24.48,17.22 26.13,17.37 27.87,17.56 29.68,17.77 31.54,18.00 33.44,18.25 35.35,18.51 37.25,18.79 39.13,19.06 40.97,19.34 42.74,19.61 44.43,19.87 46.02,20.11 47.49,20.34 48.83,20.54 50.00,20.71"/><polyline fill="none" stroke="#78928a" stroke-width=".25" points="50.00,20.71 51.68,21.12 53.44,21.37 55.26,21.49 57.14,21.48 59.05,21.34 60.98,21.09 62.91,20.74 64.84,20.29 66.74,19.76 68.60,19.15 70.41,18.47 72.15,17.73 73.80,16.95 75.36,16.12 76.80,15.26 78.11,14.38 79.28,13.48 80.28,12.58 81.12,11.68 81.76,10.80 80.85,10.72 79.74,10.70 78.48,10.73 77.06,10.80 75.52,10.92 73.87,11.07 72.13,11.25 70.32,11.47 68.46,11.70 66.56,11.95 64.65,12.21 62.75,12.49 60.87,12.76 59.03,13.04 57.26,13.31 55.57,13.57 53.98,13.81 52.51,14.04 51.17,14.24 50.00,14.41"/><polyline fill="none" stroke="#78928a" stroke-width=".25" points="50.00,55.37 50.87,55.17 51.76,54.98 52.69,54.78 53.64,54.58 54.61,54.38 55.60,54.18 56.61,53.98 57.64,53.78 58.69,53.57 59.74,53.36 60.81,53.15 61.88,52.94 62.96,52.73 64.05,52.52 65.14,52.31 66.22,52.09 67.30,51.88 68.38,51.66 69.45,51.44 70.52,51.23 71.57,51.01 72.60,50.79 73.62,50.57 74.63,50.35 75.61,50.13 76.57,49.92 77.51,49.70 78.42,49.48 79.31,49.26 80.16,49.04 80.98,48.82 81.76,48.60"/><polyline fill="none" stroke="#78928a" stroke-width=".25" points="61.88,52.94 62.79,52.93 63.60,53.21 64.33,53.70 64.99,54.32 65.59,55.03 66.15,55.73 66.67,56.36 67.17,56.84 67.66,57.12 68.14,57.11"/><polyline fill="none" stroke="#78928a" stroke-width=".25" points="61.88,52.94 62.73,52.73 63.38,52.45 63.88,52.12 64.26,51.76 64.56,51.38 64.81,51.00 65.06,50.64 65.33,50.31 65.66,50.03 66.08,49.82"/><polyline fill="none" stroke="#78928a" stroke-width=".25" points="70.52,51.23 71.44,51.14 72.30,51.20 73.11,51.38 73.87,51.63 74.57,51.92 75.23,52.22 75.85,52.47 76.43,52.64 76.96,52.71 77.47,52.62"/><polyline fill="none" stroke="#78928a" stroke-width=".25" points="70.52,51.23 71.41,51.03 72.18,50.79 72.86,50.53 73.46,50.24 73.99,49.94 74.48,49.65 74.94,49.36 75.38,49.09 75.83,48.86 76.31,48.66"/><polyline fill="none" stroke="#78928a" stroke-width=".25" points="50.00,49.07 49.13,48.87 48.24,48.68 47.31,48.48 46.36,48.28 45.39,48.08 44.40,47.88 43.39,47.68 42.36,47.48 41.31,47.27 40.26,47.06 39.19,46.85 38.12,46.64 37.04,46.43 35.95,46.22 34.86,46.01 33.78,45.79 32.70,45.58 31.62,45.36 30.55,45.14 29.48,44.93 28.43,44.71 27.40,44.49 26.38,44.27 25.37,44.05 24.39,43.83 23.43,43.61 22.49,43.40 21.58,43.18 20.69,42.96 19.84,42.74 19.02,42.52 18.24,42.30"/><polyline fill="none" stroke="#78928a" stroke-width=".25" points="38.12,46.64 37.21,46.63 36.40,46.91 35.67,47.40 35.01,48.02 34.41,48.72 33.85,49.43 33.33,50.05 32.83,50.54 32.34,50.82 31.86,50.81"/><polyline fill="none" stroke="#78928a" stroke-width=".25" points="38.12,46.64 37.27,46.43 36.62,46.15 36.12,45.82 35.74,45.46 35.44,45.08 35.19,44.70 34.94,44.34 34.67,44.01 34.34,43.73 33.92,43.52"/><polyline fill="none" stroke="#78928a" stroke-width=".25" points="29.48,44.93 28.56,44.84 27.70,44.90 26.89,45.08 26.13,45.33 25.43,45.62 24.77,45.91 24.15,46.17 23.57,46.34 23.04,46.41 22.53,46.32"/><polyline fill="none" stroke="#78928a" stroke-width=".25" points="29.48,44.93 28.59,44.73 27.82,44.49 27.14,44.23 26.54,43.94 26.01,43.64 25.52,43.35 25.06,43.06 24.62,42.79 24.17,42.56 23.69,42.36"/><polyline fill="none" stroke="#78928a" stroke-width=".25" points="50.00,42.77 50.87,42.57 51.76,42.38 52.69,42.18 53.64,41.98 54.61,41.78 55.60,41.58 56.61,41.38 57.64,41.17 58.69,40.97 59.74,40.76 60.81,40.55 61.88,40.34 62.96,40.13 64.05,39.92 65.14,39.71 66.22,39.49 67.30,39.28 68.38,39.06 69.45,38.84 70.52,38.63 71.57,38.41 72.60,38.19 73.62,37.97 74.63,37.75 75.61,37.53 76.57,37.31 77.51,37.09 78.42,36.88 79.31,36.66 80.16,36.44 80.98,36.22 81.76,36.00"/><polyline fill="none" stroke="#78928a" stroke-width=".25" points="61.88,40.34 62.79,40.33 63.60,40.61 64.33,41.09 64.99,41.72 65.59,42.42 66.15,43.13 66.67,43.75 67.17,44.24 67.66,44.52 68.14,44.51"/><polyline fill="none" stroke="#78928a" stroke-width=".25" points="61.88,40.34 62.73,40.13 63.38,39.85 63.88,39.52 64.26,39.16 64.56,38.78 64.81,38.40 65.06,38.04 65.33,37.71 65.66,37.43 66.08,37.22"/><polyline fill="none" stroke="#78928a" stroke-width=".25" points="70.52,38.63 71.44,38.54 72.30,38.60 73.11,38.78 73.87,39.03 74.57,39.32 75.23,39.61 75.85,39.87 76.43,40.04 76.96,40.11 77.47,40.02"/><polyline fill="none" stroke="#78928a" stroke-width=".25" points="70.52,38.63 71.41,38.43 72.18,38.19 72.86,37.92 73.46,37.64 73.99,37.34 74.48,37.05 74.94,36.76 75.38,36.49 75.83,36.26 76.31,36.06"/><polyline fill="none" stroke="#78928a" stroke-width=".25" points="50.00,36.47 49.13,36.27 48.24,36.08 47.31,35.88 46.36,35.68 45.39,35.48 44.40,35.28 43.39,35.08 42.36,34.87 41.31,34.67 40.26,34.46 39.19,34.25 38.12,34.04 37.04,33.83 35.95,33.62 34.86,33.41 33.78,33.19 32.70,32.98 31.62,32.76 30.55,32.54 29.48,32.33 28.43,32.11 27.40,31.89 26.38,31.67 25.37,31.45 24.39,31.23 23.43,31.01 22.49,30.79 21.58,30.58 20.69,30.36 19.84,30.14 19.02,29.92 18.24,29.70"/><polyline fill="none" stroke="#78928a" stroke-width=".25" points="38.12,34.04 37.21,34.03 36.40,34.31 35.67,34.79 35.01,35.42 34.41,36.12 33.85,36.82 33.33,37.45 32.83,37.94 32.34,38.22 31.86,38.21"/><polyline fill="none" stroke="#78928a" stroke-width=".25" points="38.12,34.04 37.27,33.83 36.62,33.55 36.12,33.22 35.74,32.86 35.44,32.48 35.19,32.10 34.94,31.74 34.67,31.41 34.34,31.13 33.92,30.92"/><polyline fill="none" stroke="#78928a" stroke-width=".25" points="29.48,32.33 28.56,32.24 27.70,32.30 26.89,32.48 26.13,32.73 25.43,33.02 24.77,33.31 24.15,33.57 23.57,33.74 23.04,33.81 22.53,33.72"/><polyline fill="none" stroke="#78928a" stroke-width=".25" points="29.48,32.33 28.59,32.13 27.82,31.89 27.14,31.62 26.54,31.34 26.01,31.04 25.52,30.75 25.06,30.46 24.62,30.19 24.17,29.96 23.69,29.76"/><polyline fill="none" stroke="#78928a" stroke-width=".25" points="50.00,30.16 50.87,29.97 51.76,29.78 52.69,29.58 53.64,29.38 54.61,29.18 55.60,28.98 56.61,28.78 57.64,28.57 58.69,28.37 59.74,28.16 60.81,27.95 61.88,27.74 62.96,27.53 64.05,27.32 65.14,27.10 66.22,26.89 67.30,26.68 68.38,26.46 69.45,26.24 70.52,26.03 71.57,25.81 72.60,25.59 73.62,25.37 74.63,25.15 75.61,24.93 76.57,24.71 77.51,24.49 78.42,24.27 79.31,24.06 80.16,23.84 80.98,23.62 81.76,23.40"/><polyline fill="none" stroke="#78928a" stroke-width=".25" points="61.88,27.74 62.79,27.73 63.60,28.01 64.33,28.49 64.99,29.12 65.59,29.82 66.15,30.52 66.67,31.15 67.17,31.64 67.66,31.92 68.14,31.91"/><polyline fill="none" stroke="#78928a" stroke-width=".25" points="61.88,27.74 62.73,27.53 63.38,27.25 63.88,26.92 64.26,26.56 64.56,26.18 64.81,25.80 65.06,25.44 65.33,25.11 65.66,24.83 66.08,24.61"/><polyline fill="none" stroke="#78928a" stroke-width=".25" points="70.52,26.03 71.44,25.94 72.30,26.00 73.11,26.18 73.87,26.43 74.57,26.72 75.23,27.01 75.85,27.27 76.43,27.44 76.96,27.51 77.47,27.42"/><polyline fill="none" stroke="#78928a" stroke-width=".25" points="70.52,26.03 71.41,25.83 72.18,25.59 72.86,25.32 73.46,25.04 73.99,24.74 74.48,24.45 74.94,24.16 75.38,23.89 75.83,23.66 76.31,23.46"/><polyline fill="none" stroke="#78928a" stroke-width=".25" points="50.00,23.86 49.13,23.67 48.24,23.48 47.31,23.28 46.36,23.08 45.39,22.88 44.40,22.68 43.39,22.48 42.36,22.27 41.31,22.07 40.26,21.86 39.19,21.65 38.12,21.44 37.04,21.23 35.95,21.02 34.86,20.80 33.78,20.59 32.70,20.38 31.62,20.16 30.55,19.94 29.48,19.73 28.43,19.51 27.40,19.29 26.38,19.07 25.37,18.85 24.39,18.63 23.43,18.41 22.49,18.19 21.58,17.97 20.69,17.75 19.84,17.54 19.02,17.32 18.24,17.10"/><polyline fill="none" stroke="#78928a" stroke-width=".25" points="38.12,21.44 37.21,21.43 36.40,21.71 35.67,22.19 35.01,22.82 34.41,23.52 33.85,24.22 33.33,24.85 32.83,25.34 32.34,25.62 31.86,25.61"/><polyline fill="none" stroke="#78928a" stroke-width=".25" points="38.12,21.44 37.27,21.23 36.62,20.95 36.12,20.62 35.74,20.26 35.44,19.88 35.19,19.50 34.94,19.14 34.67,18.81 34.34,18.53 33.92,18.31"/><polyline fill="none" stroke="#78928a" stroke-width=".25" points="29.48,19.73 28.56,19.64 27.70,19.70 26.89,19.88 26.13,20.13 25.43,20.42 24.77,20.71 24.15,20.97 23.57,21.14 23.04,21.21 22.53,21.12"/><polyline fill="none" stroke="#78928a" stroke-width=".25" points="29.48,19.73 28.59,19.53 27.82,19.29 27.14,19.02 26.54,18.74 26.01,18.44 25.52,18.15 25.06,17.86 24.62,17.59 24.17,17.35 23.69,17.16"/><polyline fill="none" stroke="#78928a" stroke-width=".25" points="50.00,17.56 50.87,17.37 51.76,17.18 52.69,16.98 53.64,16.78 54.61,16.58 55.60,16.38 56.61,16.18 57.64,15.97 58.69,15.77 59.74,15.56 60.81,15.35 61.88,15.14 62.96,14.93 64.05,14.72 65.14,14.50 66.22,14.29 67.30,14.07 68.38,13.86 69.45,13.64 70.52,13.43 71.57,13.21 72.60,12.99 73.62,12.77 74.63,12.55 75.61,12.33 76.57,12.11 77.51,11.89 78.42,11.67 79.31,11.45 80.16,11.24 80.98,11.02 81.76,10.80"/><polyline fill="none" stroke="#78928a" stroke-width=".25" points="61.88,15.14 62.79,15.13 63.60,15.41 64.33,15.89 64.99,16.52 65.59,17.22 66.15,17.92 66.67,18.55 67.17,19.04 67.66,19.32 68.14,19.31"/><polyline fill="none" stroke="#78928a" stroke-width=".25" points="61.88,15.14 62.73,14.93 63.38,14.65 63.88,14.32 64.26,13.96 64.56,13.58 64.81,13.20 65.06,12.84 65.33,12.51 65.66,12.23 66.08,12.01"/><polyline fill="none" stroke="#78928a" stroke-width=".25" points="70.52,13.43 71.44,13.34 72.30,13.40 73.11,13.58 73.87,13.83 74.57,14.12 75.23,14.41 75.85,14.67 76.43,14.84 76.96,14.91 77.47,14.82"/><polyline fill="none" stroke="#78928a" stroke-width=".25" points="70.52,13.43 71.41,13.23 72.18,12.99 72.86,12.72 73.46,12.44 73.99,12.14 74.48,11.84 74.94,11.56 75.38,11.29 75.83,11.05 76.31,10.86"/><polyline fill="none" stroke="#78928a" stroke-width=".6" points="50.00,61.43 49.97,60.56 49.93,59.67 49.91,58.78 49.88,57.89 49.86,56.99 49.84,56.09 49.83,55.18 49.82,54.27 49.81,53.36 49.80,52.44 49.79,51.52 49.79,50.60 49.79,49.67 49.79,48.75 49.80,47.82 49.80,46.89 49.81,45.96 49.82,45.03 49.83,44.10 49.84,43.17 49.85,42.23 49.87,41.30 49.88,40.37 49.90,39.44 49.91,38.51 49.93,37.59 49.95,36.66 49.96,35.74 49.98,34.82 50.00,33.91 50.02,32.99 50.04,32.08 50.05,31.18 50.07,30.27 50.09,29.38 50.10,28.48 50.12,27.59 50.13,26.71 50.15,25.83 50.16,24.96 50.17,24.10 50.18,23.24 50.19,22.39 50.20,21.54 50.20,20.70 50.21,19.87 50.21,19.05 50.21,18.24 50.21,17.43 50.20,16.63 50.19,15.85 50.18,15.07 50.17,14.30 50.16,13.54 50.14,12.80 50.12,12.06 50.09,11.33 50.07,10.62 50.03,9.91 50.00,9.22"/><rect x="46.98" y="57.58" width="1" height="1" fill="#92a19a"/><rect x="49.50" y="58.02" width="1" height="1" fill="#c6a522"/><rect x="53.45" y="58.72" width="1" height="1" fill="#c6a522"/><rect x="57.56" y="58.73" width="1" height="1" fill="#c6a522"/><rect x="61.59" y="58.20" width="1" height="1" fill="#c6a522"/><rect x="65.46" y="57.29" width="1" height="1" fill="#c6a522"/><rect x="69.12" y="56.08" width="1" height="1" fill="#c6a522"/><rect x="72.55" y="54.62" width="1" height="1" fill="#c6a522"/><rect x="75.71" y="52.92" width="1" height="1" fill="#c6a522"/><rect x="78.52" y="50.99" width="1" height="1" fill="#c6a522"/><rect x="80.78" y="48.78" width="1" height="1" fill="#c6a522"/><rect x="78.32" y="48.02" width="1" height="1" fill="#c6a522"/><rect x="74.22" y="48.29" width="1" height="1" fill="#c6a522"/><rect x="70.16" y="48.73" width="1" height="1" fill="#c6a522"/><rect x="66.12" y="49.24" width="1" height="1" fill="#c6a522"/><rect x="62.10" y="49.81" width="1" height="1" fill="#c6a522"/><rect x="58.09" y="50.41" width="1" height="1" fill="#c6a522"/><rect x="54.08" y="51.02" width="1" height="1" fill="#c6a522"/><rect x="50.07" y="51.63" width="1" height="1" fill="#c6a522"/><rect x="46.13" y="52.37" width="1" height="1" fill="#c6a522"/><rect x="42.02" y="52.46" width="1" height="1" fill="#c6a522"/><rect x="37.97" y="52.00" width="1" height="1" fill="#c6a522"/><rect x="34.08" y="51.14" width="1" height="1" fill="#c6a522"/><rect x="30.39" y="49.97" width="1" height="1" fill="#c6a522"/><rect x="26.93" y="48.54" width="1" height="1" fill="#c6a522"/><rect x="23.72" y="46.88" width="1" height="1" fill="#c6a522"/><rect x="20.85" y="44.98" width="1" height="1" fill="#c6a522"/><rect x="18.50" y="42.82" width="1" height="1" fill="#c6a522"/><rect x="20.09" y="41.70" width="1" height="1" fill="#c6a522"/><rect x="24.19" y="41.94" width="1" height="1" fill="#c6a522"/><rect x="28.26" y="42.36" width="1" height="1" fill="#c6a522"/><rect x="32.30" y="42.87" width="1" height="1" fill="#c6a522"/><rect x="36.33" y="43.43" width="1" height="1" fill="#c6a522"/><rect x="40.34" y="44.02" width="1" height="1" fill="#c6a522"/><rect x="44.35" y="44.63" width="1" height="1" fill="#c6a522"/><rect x="48.35" y="45.25" width="1" height="1" fill="#c6a522"/><rect x="52.29" y="46.00" width="1" height="1" fill="#c6a522"/><rect x="56.39" y="46.18" width="1" height="1" fill="#c6a522"/><rect x="60.46" y="45.79" width="1" height="1" fill="#c6a522"/><rect x="64.37" y="44.98" width="1" height="1" fill="#c6a522"/><rect x="68.09" y="43.85" width="1" height="1" fill="#c6a522"/><rect x="71.59" y="42.46" width="1" height="1" fill="#c6a522"/><rect x="74.84" y="40.83" width="1" height="1" fill="#c6a522"/><rect x="77.76" y="38.97" width="1" height="1" fill="#c6a522"/><rect x="80.21" y="36.84" width="1" height="1" fill="#c6a522"/><rect x="79.49" y="35.40" width="1" height="1" fill="#c6a522"/><rect x="75.39" y="35.59" width="1" height="1" fill="#c6a522"/><rect x="71.32" y="35.99" width="1" height="1" fill="#c6a522"/><rect x="67.27" y="36.49" width="1" height="1" fill="#c6a522"/><rect x="63.25" y="37.04" width="1" height="1" fill="#c6a522"/><rect x="59.23" y="37.63" width="1" height="1" fill="#c6a522"/><rect x="55.23" y="38.24" width="1" height="1" fill="#c6a522"/><rect x="51.22" y="38.86" width="1" height="1" fill="#c6a522"/><rect x="47.28" y="39.61" width="1" height="1" fill="#c6a522"/><rect x="43.20" y="39.90" width="1" height="1" fill="#c6a522"/><rect x="39.12" y="39.58" width="1" height="1" fill="#c6a522"/><rect x="35.18" y="38.82" width="1" height="1" fill="#c6a522"/><rect x="31.43" y="37.73" width="1" height="1" fill="#c6a522"/><rect x="27.89" y="36.37" width="1" height="1" fill="#c6a522"/><rect x="24.61" y="34.78" width="1" height="1" fill="#c6a522"/><rect x="21.63" y="32.95" width="1" height="1" fill="#c6a522"/><rect x="19.10" y="30.86" width="1" height="1" fill="#c6a522"/><rect x="18.92" y="29.11" width="1" height="1" fill="#c6a522"/><rect x="23.03" y="29.25" width="1" height="1" fill="#c6a522"/><rect x="27.10" y="29.63" width="1" height="1" fill="#c6a522"/><rect x="31.15" y="30.11" width="1" height="1" fill="#c6a522"/><rect x="35.18" y="30.66" width="1" height="1" fill="#c6a522"/><rect x="39.19" y="31.25" width="1" height="1" fill="#c6a522"/><rect x="43.20" y="31.86" width="1" height="1" fill="#c6a522"/><rect x="47.21" y="32.47" width="1" height="1" fill="#c6a522"/><rect x="51.15" y="33.21" width="1" height="1" fill="#c6a522"/><rect x="55.21" y="33.60" width="1" height="1" fill="#c6a522"/><rect x="59.31" y="33.35" width="1" height="1" fill="#c6a522"/><rect x="63.27" y="32.65" width="1" height="1" fill="#c6a522"/><rect x="67.05" y="31.60" width="1" height="1" fill="#c6a522"/><rect x="70.62" y="30.28" width="1" height="1" fill="#c6a522"/><rect x="73.94" y="28.72" width="1" height="1" fill="#c6a522"/><rect x="76.97" y="26.92" width="1" height="1" fill="#c6a522"/><rect x="79.57" y="24.88" width="1" height="1" fill="#c6a522"/><rect x="80.67" y="22.84" width="1" height="1" fill="#c6a522"/><rect x="76.56" y="22.90" width="1" height="1" fill="#c6a522"/></g></svg>
